<?xml version="1.0" encoding="UTF-8" standalone="no"?>
<!DOCTYPE svg PUBLIC "-//W3C//DTD SVG 1.1//EN"
 "http://www.w3.org/Graphics/SVG/1.1/DTD/svg11.dtd">
<!-- Generated by graphviz version 2.43.0 (0)
 -->
<!-- Title: dependency&#45;cruiser output Pages: 1 -->
<svg width="277pt" height="167pt"
 viewBox="0.00 0.00 277.02 167.00" xmlns="http://www.w3.org/2000/svg" xmlns:xlink="http://www.w3.org/1999/xlink">
<g id="graph0" class="graph" transform="scale(1 1) rotate(0) translate(4 163)">
<title>dependency&#45;cruiser output</title>
<polygon fill="white" stroke="transparent" points="-4,4 -4,-163 273.02,-163 273.02,4 -4,4"/>
<g id="clust1" class="cluster">
<title>cluster_src</title>
<path fill="#ffffff" stroke="black" stroke-width="2" d="M20,-8C20,-8 249.02,-8 249.02,-8 255.02,-8 261.02,-14 261.02,-20 261.02,-20 261.02,-139 261.02,-139 261.02,-145 255.02,-151 249.02,-151 249.02,-151 20,-151 20,-151 14,-151 8,-145 8,-139 8,-139 8,-20 8,-20 8,-14 14,-8 20,-8"/>
<text text-anchor="middle" x="134.51" y="-139.8" font-family="Helvetica,sans-Serif" font-weight="bold" font-size="9.00">src</text>
</g>
<g id="clust2" class="cluster">
<title>cluster_src/client</title>
<path fill="#ffffff" stroke="black" stroke-width="2" d="M28,-16C28,-16 241.02,-16 241.02,-16 247.02,-16 253.02,-22 253.02,-28 253.02,-28 253.02,-114 253.02,-114 253.02,-120 247.02,-126 241.02,-126 241.02,-126 28,-126 28,-126 22,-126 16,-120 16,-114 16,-114 16,-28 16,-28 16,-22 22,-16 28,-16"/>
<text text-anchor="middle" x="134.51" y="-114.8" font-family="Helvetica,sans-Serif" font-weight="bold" font-size="9.00">client</text>
</g>
<g id="clust3" class="cluster">
<title>cluster_src/client/helpers</title>
<path fill="#ffffff" stroke="black" stroke-width="2" d="M36,-50C36,-50 82,-50 82,-50 88,-50 94,-56 94,-62 94,-62 94,-89 94,-89 94,-95 88,-101 82,-101 82,-101 36,-101 36,-101 30,-101 24,-95 24,-89 24,-89 24,-62 24,-62 24,-56 30,-50 36,-50"/>
<text text-anchor="middle" x="59" y="-89.8" font-family="Helvetica,sans-Serif" font-weight="bold" font-size="9.00">helpers</text>
</g>
<g id="clust4" class="cluster">
<title>cluster_src/client/models</title>
<path fill="#ffffff" stroke="black" stroke-width="2" d="M114,-24C114,-24 233.02,-24 233.02,-24 239.02,-24 245.02,-30 245.02,-36 245.02,-36 245.02,-63 245.02,-63 245.02,-69 239.02,-75 233.02,-75 233.02,-75 114,-75 114,-75 108,-75 102,-69 102,-63 102,-63 102,-36 102,-36 102,-30 108,-24 114,-24"/>
<text text-anchor="middle" x="173.51" y="-63.8" font-family="Helvetica,sans-Serif" font-weight="bold" font-size="9.00">models</text>
</g>
<!-- src/client/helpers/calc.ts -->
<g id="node1" class="node">
<title>src/client/helpers/calc.ts</title>
<g id="a_node1"><a xlink:href="src/client/helpers/calc.ts" xlink:title="no&#45;orphans">
<path fill="#ccffcc" stroke="blue" d="M80.33,-75.5C80.33,-75.5 37.67,-75.5 37.67,-75.5 34.83,-75.5 32,-72.67 32,-69.83 32,-69.83 32,-64.17 32,-64.17 32,-61.33 34.83,-58.5 37.67,-58.5 37.67,-58.5 80.33,-58.5 80.33,-58.5 83.17,-58.5 86,-61.33 86,-64.17 86,-64.17 86,-69.83 86,-69.83 86,-72.67 83.17,-75.5 80.33,-75.5"/>
<text text-anchor="middle" x="59" y="-64.3" font-family="Helvetica,sans-Serif" font-size="9.00" fill="blue">calc.ts</text>
</a>
</g>
</g>
<!-- src/client/index.ts -->
<g id="node2" class="node">
<title>src/client/index.ts</title>
<g id="a_node2"><a xlink:href="src/client/index.ts" xlink:title="index.ts">
<path fill="#ddfeff" stroke="black" d="M80.33,-41.5C80.33,-41.5 37.67,-41.5 37.67,-41.5 34.83,-41.5 32,-38.67 32,-35.83 32,-35.83 32,-30.17 32,-30.17 32,-27.33 34.83,-24.5 37.67,-24.5 37.67,-24.5 80.33,-24.5 80.33,-24.5 83.17,-24.5 86,-27.33 86,-30.17 86,-30.17 86,-35.83 86,-35.83 86,-38.67 83.17,-41.5 80.33,-41.5"/>
<text text-anchor="middle" x="59" y="-30.3" font-family="Helvetica,sans-Serif" font-size="9.00">index.ts</text>
</a>
</g>
</g>
<!-- src/client/models/BookList.ts -->
<g id="node3" class="node">
<title>src/client/models/BookList.ts</title>
<g id="a_node3"><a xlink:href="src/client/models/BookList.ts" xlink:title="BookList.ts">
<path fill="#ddfeff" stroke="black" d="M164.36,-49.5C164.36,-49.5 115.66,-49.5 115.66,-49.5 112.82,-49.5 109.99,-46.67 109.99,-43.83 109.99,-43.83 109.99,-38.17 109.99,-38.17 109.99,-35.33 112.82,-32.5 115.66,-32.5 115.66,-32.5 164.36,-32.5 164.36,-32.5 167.2,-32.5 170.03,-35.33 170.03,-38.17 170.03,-38.17 170.03,-43.83 170.03,-43.83 170.03,-46.67 167.2,-49.5 164.36,-49.5"/>
<text text-anchor="middle" x="140.01" y="-38.3" font-family="Helvetica,sans-Serif" font-size="9.00">BookList.ts</text>
</a>
</g>
</g>
<!-- src/client/index.ts&#45;&gt;src/client/models/BookList.ts -->
<g id="edge1" class="edge">
<title>src/client/index.ts&#45;&gt;src/client/models/BookList.ts</title>
<path fill="none" stroke="#000000" stroke-width="2" stroke-opacity="0.200000" d="M86.31,-35.66C91.85,-36.22 97.78,-36.83 103.59,-37.41"/>
<polygon fill="#000000" fill-opacity="0.200000" stroke="#000000" stroke-width="2" stroke-opacity="0.200000" points="103.64,-39.53 109.82,-38.04 104.06,-35.35 103.64,-39.53"/>
</g>
<!-- src/client/models/Book.ts -->
<g id="node4" class="node">
<title>src/client/models/Book.ts</title>
<g id="a_node4"><a xlink:href="src/client/models/Book.ts" xlink:title="Book.ts">
<path fill="#ddfeff" stroke="black" d="M231.35,-49.5C231.35,-49.5 188.69,-49.5 188.69,-49.5 185.85,-49.5 183.02,-46.67 183.02,-43.83 183.02,-43.83 183.02,-38.17 183.02,-38.17 183.02,-35.33 185.85,-32.5 188.69,-32.5 188.69,-32.5 231.35,-32.5 231.35,-32.5 234.19,-32.5 237.02,-35.33 237.02,-38.17 237.02,-38.17 237.02,-43.83 237.02,-43.83 237.02,-46.67 234.19,-49.5 231.35,-49.5"/>
<text text-anchor="middle" x="210.02" y="-38.3" font-family="Helvetica,sans-Serif" font-size="9.00">Book.ts</text>
</a>
</g>
</g>
<!-- src/client/models/BookList.ts&#45;&gt;src/client/models/Book.ts -->
<g id="edge2" class="edge">
<title>src/client/models/BookList.ts&#45;&gt;src/client/models/Book.ts</title>
<path fill="none" stroke="#000000" stroke-width="2" stroke-opacity="0.200000" d="M170.25,-41C172.34,-41 174.45,-41 176.55,-41"/>
<polygon fill="#000000" fill-opacity="0.200000" stroke="#000000" stroke-width="2" stroke-opacity="0.200000" points="176.81,-43.1 182.81,-41 176.81,-38.9 176.81,-43.1"/>
</g>
</g>
</svg>
