<?xml version="1.0" encoding="UTF-8" standalone="no"?>
<!DOCTYPE svg PUBLIC "-//W3C//DTD SVG 1.1//EN"
 "http://www.w3.org/Graphics/SVG/1.1/DTD/svg11.dtd">
<!-- Generated by graphviz version 2.47.0 (20210316.0004)
 -->
<!-- Title: dependency&#45;cruiser output Pages: 1 -->
<svg width="320pt" height="268pt"
 viewBox="0.00 0.00 320.00 268.00" xmlns="http://www.w3.org/2000/svg" xmlns:xlink="http://www.w3.org/1999/xlink">
<g id="graph0" class="graph" transform="scale(1 1) rotate(0) translate(4 264)">
<title>dependency&#45;cruiser output</title>
<polygon fill="white" stroke="transparent" points="-4,4 -4,-264 316,-264 316,4 -4,4"/>
<!-- src/components/DateTimePicker/Calendar.tsx -->
<g id="node1" class="node">
<title>src/components/DateTimePicker/Calendar.tsx</title>
<g id="a_node1"><a xlink:href="src/components/DateTimePicker/Calendar.tsx" xlink:title="src/components/DateTimePicker/&lt;BR/&gt;&lt;B&gt;Calendar.tsx&lt;/B&gt;">
<path fill="#bbfeff" stroke="black" d="M303.33,-26C303.33,-26 170.67,-26 170.67,-26 166.33,-26 162,-21.67 162,-17.33 162,-17.33 162,-8.67 162,-8.67 162,-4.33 166.33,0 170.67,0 170.67,0 303.33,0 303.33,0 307.67,0 312,-4.33 312,-8.67 312,-8.67 312,-17.33 312,-17.33 312,-21.67 307.67,-26 303.33,-26"/>
<text text-anchor="start" x="170" y="-15.8" font-family="Helvetica,sans-Serif" font-size="9.00">src/components/DateTimePicker/</text>
<text text-anchor="start" x="209.5" y="-6.8" font-family="Helvetica,sans-Serif" font-weight="bold" font-size="9.00">Calendar.tsx</text>
</a>
</g>
</g>
<!-- src/components/DateTimePicker/DateOfBirthPicker.scss -->
<g id="node2" class="node">
<title>src/components/DateTimePicker/DateOfBirthPicker.scss</title>
<g id="a_node2"><a xlink:href="src/components/DateTimePicker/DateOfBirthPicker.scss" xlink:title="src/components/DateTimePicker/&lt;BR/&gt;&lt;B&gt;DateOfBirthPicker.scss&lt;/B&gt;">
<path fill="#ffffcc" stroke="black" d="M141.33,-65C141.33,-65 8.67,-65 8.67,-65 4.33,-65 0,-60.67 0,-56.33 0,-56.33 0,-47.67 0,-47.67 0,-43.33 4.33,-39 8.67,-39 8.67,-39 141.33,-39 141.33,-39 145.67,-39 150,-43.33 150,-47.67 150,-47.67 150,-56.33 150,-56.33 150,-60.67 145.67,-65 141.33,-65"/>
<text text-anchor="start" x="8" y="-54.8" font-family="Helvetica,sans-Serif" font-size="9.00">src/components/DateTimePicker/</text>
<text text-anchor="start" x="24" y="-45.8" font-family="Helvetica,sans-Serif" font-weight="bold" font-size="9.00">DateOfBirthPicker.scss</text>
</a>
</g>
</g>
<!-- src/components/DateTimePicker/DateOfBirthPicker.tsx -->
<g id="node3" class="node">
<title>src/components/DateTimePicker/DateOfBirthPicker.tsx</title>
<g id="a_node3"><a xlink:href="src/components/DateTimePicker/DateOfBirthPicker.tsx" xlink:title="src/components/DateTimePicker/&lt;BR/&gt;&lt;B&gt;DateOfBirthPicker.tsx&lt;/B&gt;">
<path fill="#bbfeff" stroke="black" d="M222.33,-104C222.33,-104 89.67,-104 89.67,-104 85.33,-104 81,-99.67 81,-95.33 81,-95.33 81,-86.67 81,-86.67 81,-82.33 85.33,-78 89.67,-78 89.67,-78 222.33,-78 222.33,-78 226.67,-78 231,-82.33 231,-86.67 231,-86.67 231,-95.33 231,-95.33 231,-99.67 226.67,-104 222.33,-104"/>
<text text-anchor="start" x="89" y="-93.8" font-family="Helvetica,sans-Serif" font-size="9.00">src/components/DateTimePicker/</text>
<text text-anchor="start" x="109" y="-84.8" font-family="Helvetica,sans-Serif" font-weight="bold" font-size="9.00">DateOfBirthPicker.tsx</text>
</a>
</g>
</g>
<!-- src/components/DateTimePicker/DateOfBirthPicker.tsx&#45;&gt;src/components/DateTimePicker/DateOfBirthPicker.scss -->
<g id="edge1" class="edge">
<title>src/components/DateTimePicker/DateOfBirthPicker.tsx&#45;&gt;src/components/DateTimePicker/DateOfBirthPicker.scss</title>
<path fill="none" stroke="#000000" stroke-width="2" stroke-opacity="0.200000" d="M115.5,-77.8C115.5,-77.8 115.5,-71.19 115.5,-71.19"/>
<polygon fill="#000000" fill-opacity="0.200000" stroke="#000000" stroke-width="2" stroke-opacity="0.200000" points="117.6,-71.19 115.5,-65.19 113.4,-71.19 117.6,-71.19"/>
</g>
<!-- src/components/DateTimePicker/DatePicker.tsx -->
<g id="node4" class="node">
<title>src/components/DateTimePicker/DatePicker.tsx</title>
<g id="a_node4"><a xlink:href="src/components/DateTimePicker/DatePicker.tsx" xlink:title="src/components/DateTimePicker/&lt;BR/&gt;&lt;B&gt;DatePicker.tsx&lt;/B&gt;">
<path fill="#bbfeff" stroke="black" d="M303.33,-65C303.33,-65 170.67,-65 170.67,-65 166.33,-65 162,-60.67 162,-56.33 162,-56.33 162,-47.67 162,-47.67 162,-43.33 166.33,-39 170.67,-39 170.67,-39 303.33,-39 303.33,-39 307.67,-39 312,-43.33 312,-47.67 312,-47.67 312,-56.33 312,-56.33 312,-60.67 307.67,-65 303.33,-65"/>
<text text-anchor="start" x="170" y="-54.8" font-family="Helvetica,sans-Serif" font-size="9.00">src/components/DateTimePicker/</text>
<text text-anchor="start" x="205" y="-45.8" font-family="Helvetica,sans-Serif" font-weight="bold" font-size="9.00">DatePicker.tsx</text>
</a>
</g>
</g>
<!-- src/components/DateTimePicker/DateOfBirthPicker.tsx&#45;&gt;src/components/DateTimePicker/DatePicker.tsx -->
<g id="edge2" class="edge">
<title>src/components/DateTimePicker/DateOfBirthPicker.tsx&#45;&gt;src/components/DateTimePicker/DatePicker.tsx</title>
<path fill="none" stroke="#000000" stroke-width="2" stroke-opacity="0.200000" d="M196.5,-77.8C196.5,-77.8 196.5,-71.19 196.5,-71.19"/>
<polygon fill="#000000" fill-opacity="0.200000" stroke="#000000" stroke-width="2" stroke-opacity="0.200000" points="198.6,-71.19 196.5,-65.19 194.4,-71.19 198.6,-71.19"/>
</g>
<!-- src/components/DateTimePicker/DatePicker.tsx&#45;&gt;src/components/DateTimePicker/Calendar.tsx -->
<g id="edge3" class="edge">
<title>src/components/DateTimePicker/DatePicker.tsx&#45;&gt;src/components/DateTimePicker/Calendar.tsx</title>
<path fill="none" stroke="#000000" stroke-width="2" stroke-opacity="0.200000" d="M237,-38.8C237,-38.8 237,-32.19 237,-32.19"/>
<polygon fill="#000000" fill-opacity="0.200000" stroke="#000000" stroke-width="2" stroke-opacity="0.200000" points="239.1,-32.19 237,-26.19 234.9,-32.19 239.1,-32.19"/>
</g>
<!-- src/components/Forms/FormControls.tsx -->
<g id="node5" class="node">
<title>src/components/Forms/FormControls.tsx</title>
<g id="a_node5"><a xlink:href="src/components/Forms/FormControls.tsx" xlink:title="src/components/Forms/&lt;BR/&gt;&lt;B&gt;FormControls.tsx&lt;/B&gt;">
<path fill="#bbfeff" stroke="black" d="M202.83,-143C202.83,-143 109.17,-143 109.17,-143 104.83,-143 100.5,-138.67 100.5,-134.33 100.5,-134.33 100.5,-125.67 100.5,-125.67 100.5,-121.33 104.83,-117 109.17,-117 109.17,-117 202.83,-117 202.83,-117 207.17,-117 211.5,-121.33 211.5,-125.67 211.5,-125.67 211.5,-134.33 211.5,-134.33 211.5,-138.67 207.17,-143 202.83,-143"/>
<text text-anchor="start" x="108.5" y="-132.8" font-family="Helvetica,sans-Serif" font-size="9.00">src/components/Forms/</text>
<text text-anchor="start" x="118" y="-123.8" font-family="Helvetica,sans-Serif" font-weight="bold" font-size="9.00">FormControls.tsx</text>
</a>
</g>
</g>
<!-- src/components/Forms/FormControls.tsx&#45;&gt;src/components/DateTimePicker/DateOfBirthPicker.tsx -->
<g id="edge4" class="edge">
<title>src/components/Forms/FormControls.tsx&#45;&gt;src/components/DateTimePicker/DateOfBirthPicker.tsx</title>
<path fill="none" stroke="#000000" stroke-width="2" stroke-opacity="0.200000" d="M156,-116.8C156,-116.8 156,-110.19 156,-110.19"/>
<polygon fill="#000000" fill-opacity="0.200000" stroke="#000000" stroke-width="2" stroke-opacity="0.200000" points="158.1,-110.19 156,-104.19 153.9,-110.19 158.1,-110.19"/>
</g>
<!-- src/components/SiteSelector/SiteSelector.tsx -->
<g id="node6" class="node">
<title>src/components/SiteSelector/SiteSelector.tsx</title>
<g id="a_node6"><a xlink:href="src/components/SiteSelector/SiteSelector.tsx" xlink:title="src/components/SiteSelector/&lt;BR/&gt;&lt;B&gt;SiteSelector.tsx&lt;/B&gt;">
<path fill="#bbfeff" stroke="black" d="M214.83,-182C214.83,-182 97.17,-182 97.17,-182 92.83,-182 88.5,-177.67 88.5,-173.33 88.5,-173.33 88.5,-164.67 88.5,-164.67 88.5,-160.33 92.83,-156 97.17,-156 97.17,-156 214.83,-156 214.83,-156 219.17,-156 223.5,-160.33 223.5,-164.67 223.5,-164.67 223.5,-173.33 223.5,-173.33 223.5,-177.67 219.17,-182 214.83,-182"/>
<text text-anchor="start" x="96.5" y="-171.8" font-family="Helvetica,sans-Serif" font-size="9.00">src/components/SiteSelector/</text>
<text text-anchor="start" x="122" y="-162.8" font-family="Helvetica,sans-Serif" font-weight="bold" font-size="9.00">SiteSelector.tsx</text>
</a>
</g>
</g>
<!-- src/components/SiteSelector/SiteSelector.tsx&#45;&gt;src/components/Forms/FormControls.tsx -->
<g id="edge5" class="edge">
<title>src/components/SiteSelector/SiteSelector.tsx&#45;&gt;src/components/Forms/FormControls.tsx</title>
<path fill="none" stroke="#000000" stroke-width="2" stroke-opacity="0.200000" d="M156,-155.8C156,-155.8 156,-149.19 156,-149.19"/>
<polygon fill="#000000" fill-opacity="0.200000" stroke="#000000" stroke-width="2" stroke-opacity="0.200000" points="158.1,-149.19 156,-143.19 153.9,-149.19 158.1,-149.19"/>
</g>
<!-- src/pages/CreateEvent/Sections/EventLocation/EventLocationViewModel.ts -->
<g id="node7" class="node">
<title>src/pages/CreateEvent/Sections/EventLocation/EventLocationViewModel.ts</title>
<g id="a_node7"><a xlink:href="src/pages/CreateEvent/Sections/EventLocation/EventLocationViewModel.ts" xlink:title="src/pages/CreateEvent/Sections/EventLocation/&lt;BR/&gt;&lt;B&gt;EventLocationViewModel.ts&lt;/B&gt;">
<path fill="#ddfeff" stroke="black" d="M252.33,-221C252.33,-221 59.67,-221 59.67,-221 55.33,-221 51,-216.67 51,-212.33 51,-212.33 51,-203.67 51,-203.67 51,-199.33 55.33,-195 59.67,-195 59.67,-195 252.33,-195 252.33,-195 256.67,-195 261,-199.33 261,-203.67 261,-203.67 261,-212.33 261,-212.33 261,-216.67 256.67,-221 252.33,-221"/>
<text text-anchor="start" x="59" y="-210.8" font-family="Helvetica,sans-Serif" font-size="9.00">src/pages/CreateEvent/Sections/EventLocation/</text>
<text text-anchor="start" x="97" y="-201.8" font-family="Helvetica,sans-Serif" font-weight="bold" font-size="9.00">EventLocationViewModel.ts</text>
</a>
</g>
</g>
<!-- src/pages/CreateEvent/Sections/EventLocation/EventLocationViewModel.ts&#45;&gt;src/components/SiteSelector/SiteSelector.tsx -->
<g id="edge6" class="edge">
<title>src/pages/CreateEvent/Sections/EventLocation/EventLocationViewModel.ts&#45;&gt;src/components/SiteSelector/SiteSelector.tsx</title>
<g id="a_edge6"><a xlink:title="no&#45;ui&#45;assets&#45;in&#45;view&#45;models (direct)">
<path fill="none" stroke="red" stroke-width="2" d="M156,-194.8C156,-194.8 156,-188.19 156,-188.19"/>
<polygon fill="red" stroke="red" stroke-width="2" points="158.1,-188.19 156,-182.19 153.9,-188.19 158.1,-188.19"/>
</a>
</g>
<text text-anchor="middle" x="82.5" y="-184.29" font-family="Helvetica,sans-Serif" font-size="9.00" fill="red">no&#45;ui&#45;assets&#45;in&#45;view&#45;models (direct)</text>
</g>
<!-- src/pages/CreateEvent/Sections/InterviewDetails/InterviewDetailsViewModel.ts -->
<g id="node8" class="node">
<title>src/pages/CreateEvent/Sections/InterviewDetails/InterviewDetailsViewModel.ts</title>
<g id="a_node8"><a xlink:href="src/pages/CreateEvent/Sections/InterviewDetails/InterviewDetailsViewModel.ts" xlink:title="src/pages/CreateEvent/Sections/InterviewDetails/&lt;BR/&gt;&lt;B&gt;InterviewDetailsViewModel.ts&lt;/B&gt;">
<path fill="#ddfeff" stroke="black" d="M255.83,-260C255.83,-260 56.17,-260 56.17,-260 51.83,-260 47.5,-255.67 47.5,-251.33 47.5,-251.33 47.5,-242.67 47.5,-242.67 47.5,-238.33 51.83,-234 56.17,-234 56.17,-234 255.83,-234 255.83,-234 260.17,-234 264.5,-238.33 264.5,-242.67 264.5,-242.67 264.5,-251.33 264.5,-251.33 264.5,-255.67 260.17,-260 255.83,-260"/>
<text text-anchor="start" x="55.5" y="-249.8" font-family="Helvetica,sans-Serif" font-size="9.00">src/pages/CreateEvent/Sections/InterviewDetails/</text>
<text text-anchor="start" x="93" y="-240.8" font-family="Helvetica,sans-Serif" font-weight="bold" font-size="9.00">InterviewDetailsViewModel.ts</text>
</a>
</g>
</g>
<!-- src/pages/CreateEvent/Sections/InterviewDetails/InterviewDetailsViewModel.ts&#45;&gt;src/pages/CreateEvent/Sections/EventLocation/EventLocationViewModel.ts -->
<g id="edge7" class="edge">
<title>src/pages/CreateEvent/Sections/InterviewDetails/InterviewDetailsViewModel.ts&#45;&gt;src/pages/CreateEvent/Sections/EventLocation/EventLocationViewModel.ts</title>
<path fill="none" stroke="#000000" stroke-width="2" stroke-opacity="0.200000" d="M156,-233.8C156,-233.8 156,-227.19 156,-227.19"/>
<polygon fill="#000000" fill-opacity="0.200000" stroke="#000000" stroke-width="2" stroke-opacity="0.200000" points="158.1,-227.19 156,-221.19 153.9,-227.19 158.1,-227.19"/>
</g>
</g>
</svg>
