<?xml version="1.0" encoding="UTF-8" standalone="no"?>
<!DOCTYPE svg PUBLIC "-//W3C//DTD SVG 1.1//EN"
 "http://www.w3.org/Graphics/SVG/1.1/DTD/svg11.dtd">
<!-- Generated by graphviz version 9.0.0 (20230911.1827)
 -->
<!-- Title: dependency&#45;cruiser output Pages: 1 -->
<svg width="752pt" height="262pt"
 viewBox="0.00 0.00 752.00 262.00" xmlns="http://www.w3.org/2000/svg" xmlns:xlink="http://www.w3.org/1999/xlink">
<g id="graph0" class="graph" transform="scale(1 1) rotate(0) translate(4 258)">
<title>dependency&#45;cruiser output</title>
<polygon fill="white" stroke="none" points="-4,4 -4,-258 748,-258 748,4 -4,4"/>
<g id="clust1" class="cluster">
<title>cluster_apps</title>
<path fill="#ffffff" stroke="black" stroke-width="2" d="M20,-160.75C20,-160.75 724,-160.75 724,-160.75 730,-160.75 736,-166.75 736,-172.75 736,-172.75 736,-234 736,-234 736,-240 730,-246 724,-246 724,-246 20,-246 20,-246 14,-246 8,-240 8,-234 8,-234 8,-172.75 8,-172.75 8,-166.75 14,-160.75 20,-160.75"/>
<text text-anchor="middle" x="372" y="-233.45" font-family="Helvetica,sans-Serif" font-weight="bold" font-size="9.00">apps</text>
</g>
<g id="clust2" class="cluster">
<title>cluster_apps/admin</title>
<path fill="#ffffff" stroke="black" stroke-width="2" d="M28,-168.75C28,-168.75 716,-168.75 716,-168.75 722,-168.75 728,-174.75 728,-180.75 728,-180.75 728,-208.25 728,-208.25 728,-214.25 722,-220.25 716,-220.25 716,-220.25 28,-220.25 28,-220.25 22,-220.25 16,-214.25 16,-208.25 16,-208.25 16,-180.75 16,-180.75 16,-174.75 22,-168.75 28,-168.75"/>
<text text-anchor="middle" x="372" y="-207.7" font-family="Helvetica,sans-Serif" font-weight="bold" font-size="9.00">admin</text>
</g>
<g id="clust3" class="cluster">
<title>cluster_libs</title>
<path fill="#ffffff" stroke="black" stroke-width="2" d="M233,-8C233,-8 643,-8 643,-8 649,-8 655,-14 655,-20 655,-20 655,-140.75 655,-140.75 655,-146.75 649,-152.75 643,-152.75 643,-152.75 233,-152.75 233,-152.75 227,-152.75 221,-146.75 221,-140.75 221,-140.75 221,-20 221,-20 221,-14 227,-8 233,-8"/>
<text text-anchor="middle" x="438" y="-140.2" font-family="Helvetica,sans-Serif" font-weight="bold" font-size="9.00">libs</text>
</g>
<g id="clust4" class="cluster">
<title>cluster_libs/aap</title>
<path fill="#ffffff" stroke="black" stroke-width="2" d="M475,-16C475,-16 557,-16 557,-16 563,-16 569,-22 569,-28 569,-28 569,-115 569,-115 569,-121 563,-127 557,-127 557,-127 475,-127 475,-127 469,-127 463,-121 463,-115 463,-115 463,-28 463,-28 463,-22 469,-16 475,-16"/>
<text text-anchor="middle" x="516" y="-114.45" font-family="Helvetica,sans-Serif" font-weight="bold" font-size="9.00">aap</text>
</g>
<g id="clust5" class="cluster">
<title>cluster_libs/mies</title>
<path fill="#ffffff" stroke="black" stroke-width="2" d="M397,-75.5C397,-75.5 443,-75.5 443,-75.5 449,-75.5 455,-81.5 455,-87.5 455,-87.5 455,-115 455,-115 455,-121 449,-127 443,-127 443,-127 397,-127 397,-127 391,-127 385,-121 385,-115 385,-115 385,-87.5 385,-87.5 385,-81.5 391,-75.5 397,-75.5"/>
<text text-anchor="middle" x="420" y="-114.45" font-family="Helvetica,sans-Serif" font-weight="bold" font-size="9.00">mies</text>
</g>
<g id="clust6" class="cluster">
<title>cluster_libs/noot</title>
<path fill="#ffffff" stroke="black" stroke-width="2" d="M589,-16C589,-16 635,-16 635,-16 641,-16 647,-22 647,-28 647,-28 647,-55.5 647,-55.5 647,-61.5 641,-67.5 635,-67.5 635,-67.5 589,-67.5 589,-67.5 583,-67.5 577,-61.5 577,-55.5 577,-55.5 577,-28 577,-28 577,-22 583,-16 589,-16"/>
<text text-anchor="middle" x="612" y="-54.95" font-family="Helvetica,sans-Serif" font-weight="bold" font-size="9.00">noot</text>
</g>
<g id="clust7" class="cluster">
<title>cluster_libs/wim</title>
<path fill="#ffffff" stroke="black" stroke-width="2" d="M319,-75.5C319,-75.5 365,-75.5 365,-75.5 371,-75.5 377,-81.5 377,-87.5 377,-87.5 377,-115 377,-115 377,-121 371,-127 365,-127 365,-127 319,-127 319,-127 313,-127 307,-121 307,-115 307,-115 307,-87.5 307,-87.5 307,-81.5 313,-75.5 319,-75.5"/>
<text text-anchor="middle" x="342" y="-114.45" font-family="Helvetica,sans-Serif" font-weight="bold" font-size="9.00">wim</text>
</g>
<g id="clust8" class="cluster">
<title>cluster_libs/zus</title>
<path fill="#ffffff" stroke="black" stroke-width="2" d="M241,-75.5C241,-75.5 287,-75.5 287,-75.5 293,-75.5 299,-81.5 299,-87.5 299,-87.5 299,-115 299,-115 299,-121 293,-127 287,-127 287,-127 241,-127 241,-127 235,-127 229,-121 229,-115 229,-115 229,-87.5 229,-87.5 229,-81.5 235,-75.5 241,-75.5"/>
<text text-anchor="middle" x="264" y="-114.45" font-family="Helvetica,sans-Serif" font-weight="bold" font-size="9.00">zus</text>
</g>
<!-- apps/admin/direct&#45;relative&#45;import.ts -->
<g id="node1" class="node">
<title>apps/admin/direct&#45;relative&#45;import.ts</title>
<g id="a_node1"><a xlink:href="apps/admin/direct-relative-import.ts" xlink:title="direct&#45;relative&#45;import.ts">
<path fill="#ddfeff" stroke="black" d="M611.58,-194.5C611.58,-194.5 514.42,-194.5 514.42,-194.5 511.46,-194.5 508.5,-191.54 508.5,-188.58 508.5,-188.58 508.5,-182.67 508.5,-182.67 508.5,-179.71 511.46,-176.75 514.42,-176.75 514.42,-176.75 611.58,-176.75 611.58,-176.75 614.54,-176.75 617.5,-179.71 617.5,-182.67 617.5,-182.67 617.5,-188.58 617.5,-188.58 617.5,-191.54 614.54,-194.5 611.58,-194.5"/>
<text text-anchor="start" x="516.5" y="-181.95" font-family="Helvetica,sans-Serif" font-size="9.00">direct&#45;relative&#45;import.ts</text>
</a>
</g>
</g>
<!-- libs/aap/index.ts -->
<g id="node2" class="node">
<title>libs/aap/index.ts</title>
<g id="a_node2"><a xlink:href="libs/aap/index.ts" xlink:title="index.ts">
<path fill="#ddfeff" stroke="black" d="M555.08,-101.25C555.08,-101.25 512.92,-101.25 512.92,-101.25 509.96,-101.25 507,-98.29 507,-95.33 507,-95.33 507,-89.42 507,-89.42 507,-86.46 509.96,-83.5 512.92,-83.5 512.92,-83.5 555.08,-83.5 555.08,-83.5 558.04,-83.5 561,-86.46 561,-89.42 561,-89.42 561,-95.33 561,-95.33 561,-98.29 558.04,-101.25 555.08,-101.25"/>
<text text-anchor="start" x="518.25" y="-88.7" font-family="Helvetica,sans-Serif" font-size="9.00">index.ts</text>
</a>
</g>
</g>
<!-- apps/admin/direct&#45;relative&#45;import.ts&#45;&gt;libs/aap/index.ts -->
<g id="edge1" class="edge">
<title>apps/admin/direct&#45;relative&#45;import.ts&#45;&gt;libs/aap/index.ts</title>
<g id="a_edge1"><a xlink:title="to&#45;libs&#45;tsconfig&#45;only">
<path fill="none" stroke="#000000" stroke-width="2" stroke-opacity="0.200000" d="M560.43,-176.53C555.71,-161.68 545.59,-129.84 539.33,-110.15"/>
<polygon fill="#000000" fill-opacity="0.200000" stroke="#000000" stroke-width="2" stroke-opacity="0.200000" points="541.35,-109.55 537.53,-104.47 537.34,-110.82 541.35,-109.55"/>
</a>
</g>
<text text-anchor="middle" x="508.68" y="-139.99" font-family="Helvetica,sans-Serif" font-size="9.00" fill="red">to&#45;libs&#45;tsconfig&#45;only</text>
</g>
<!-- libs/noot/index.js -->
<g id="node11" class="node">
<title>libs/noot/index.js</title>
<g id="a_node11"><a xlink:href="libs/noot/index.js" xlink:title="index.js">
<path fill="#ffffcc" stroke="black" d="M633.08,-41.75C633.08,-41.75 590.92,-41.75 590.92,-41.75 587.96,-41.75 585,-38.79 585,-35.83 585,-35.83 585,-29.92 585,-29.92 585,-26.96 587.96,-24 590.92,-24 590.92,-24 633.08,-24 633.08,-24 636.04,-24 639,-26.96 639,-29.92 639,-29.92 639,-35.83 639,-35.83 639,-38.79 636.04,-41.75 633.08,-41.75"/>
<text text-anchor="start" x="596.25" y="-29.2" font-family="Helvetica,sans-Serif" font-size="9.00">index.js</text>
</a>
</g>
</g>
<!-- libs/aap/index.ts&#45;&gt;libs/noot/index.js -->
<g id="edge7" class="edge">
<title>libs/aap/index.ts&#45;&gt;libs/noot/index.js</title>
<g id="a_edge7"><a xlink:title="inter&#45;libs&#45;tsconfig&#45;only">
<path fill="none" stroke="orange" stroke-width="2" d="M548.02,-83.2C555.33,-78.78 564.32,-73.1 572,-67.5 580.36,-61.41 589.2,-54.07 596.45,-47.81"/>
<polygon fill="orange" stroke="orange" stroke-width="2" points="597.68,-49.52 600.8,-43.99 594.91,-46.37 597.68,-49.52"/>
</a>
</g>
<text text-anchor="middle" x="531.34" y="-65.46" font-family="Helvetica,sans-Serif" font-size="9.00" fill="orange">inter&#45;libs&#45;tsconfig&#45;only</text>
</g>
<!-- libs/aap/something&#45;local.ts -->
<g id="node12" class="node">
<title>libs/aap/something&#45;local.ts</title>
<g id="a_node12"><a xlink:href="libs/aap/something-local.ts" xlink:title="something&#45;local.ts">
<path fill="#ddfeff" stroke="black" d="M555.21,-41.75C555.21,-41.75 476.79,-41.75 476.79,-41.75 473.83,-41.75 470.88,-38.79 470.88,-35.83 470.88,-35.83 470.88,-29.92 470.88,-29.92 470.88,-26.96 473.83,-24 476.79,-24 476.79,-24 555.21,-24 555.21,-24 558.17,-24 561.12,-26.96 561.12,-29.92 561.12,-29.92 561.12,-35.83 561.12,-35.83 561.12,-38.79 558.17,-41.75 555.21,-41.75"/>
<text text-anchor="start" x="478.88" y="-29.2" font-family="Helvetica,sans-Serif" font-size="9.00">something&#45;local.ts</text>
</a>
</g>
</g>
<!-- libs/aap/index.ts&#45;&gt;libs/aap/something&#45;local.ts -->
<g id="edge8" class="edge">
<title>libs/aap/index.ts&#45;&gt;libs/aap/something&#45;local.ts</title>
<path fill="none" stroke="#000000" stroke-width="2" stroke-opacity="0.200000" d="M531.5,-83.38C528.87,-74.98 524.65,-61.51 521.28,-50.75"/>
<polygon fill="#000000" fill-opacity="0.200000" stroke="#000000" stroke-width="2" stroke-opacity="0.200000" points="523.3,-50.16 519.5,-45.06 519.29,-51.42 523.3,-50.16"/>
</g>
<!-- apps/admin/from&#45;subpath&#45;import.ts -->
<g id="node3" class="node">
<title>apps/admin/from&#45;subpath&#45;import.ts</title>
<g id="a_node3"><a xlink:href="apps/admin/from-subpath-import.ts" xlink:title="from&#45;subpath&#45;import.ts">
<path fill="#ddfeff" stroke="black" d="M490.83,-194.5C490.83,-194.5 395.17,-194.5 395.17,-194.5 392.21,-194.5 389.25,-191.54 389.25,-188.58 389.25,-188.58 389.25,-182.67 389.25,-182.67 389.25,-179.71 392.21,-176.75 395.17,-176.75 395.17,-176.75 490.83,-176.75 490.83,-176.75 493.79,-176.75 496.75,-179.71 496.75,-182.67 496.75,-182.67 496.75,-188.58 496.75,-188.58 496.75,-191.54 493.79,-194.5 490.83,-194.5"/>
<text text-anchor="start" x="397.25" y="-181.95" font-family="Helvetica,sans-Serif" font-size="9.00">from&#45;subpath&#45;import.ts</text>
</a>
</g>
</g>
<!-- libs/mies/index.js -->
<g id="node4" class="node">
<title>libs/mies/index.js</title>
<g id="a_node4"><a xlink:href="libs/mies/index.js" xlink:title="index.js">
<path fill="#ffffcc" stroke="black" d="M441.08,-101.25C441.08,-101.25 398.92,-101.25 398.92,-101.25 395.96,-101.25 393,-98.29 393,-95.33 393,-95.33 393,-89.42 393,-89.42 393,-86.46 395.96,-83.5 398.92,-83.5 398.92,-83.5 441.08,-83.5 441.08,-83.5 444.04,-83.5 447,-86.46 447,-89.42 447,-89.42 447,-95.33 447,-95.33 447,-98.29 444.04,-101.25 441.08,-101.25"/>
<text text-anchor="start" x="404.25" y="-88.7" font-family="Helvetica,sans-Serif" font-size="9.00">index.js</text>
</a>
</g>
</g>
<!-- apps/admin/from&#45;subpath&#45;import.ts&#45;&gt;libs/mies/index.js -->
<g id="edge2" class="edge">
<title>apps/admin/from&#45;subpath&#45;import.ts&#45;&gt;libs/mies/index.js</title>
<g id="a_edge2"><a xlink:title="to&#45;libs&#45;tsconfig&#45;only">
<path fill="none" stroke="darkgreen" stroke-width="2" d="M440.96,-176.53C437.22,-161.68 429.19,-129.84 424.23,-110.15"/>
<polygon fill="darkgreen" stroke="darkgreen" stroke-width="2" points="426.31,-109.83 422.81,-104.52 422.24,-110.85 426.31,-109.83"/>
</a>
</g>
<text text-anchor="middle" x="391.7" y="-130.24" font-family="Helvetica,sans-Serif" font-size="9.00" fill="red">to&#45;libs&#45;tsconfig&#45;only</text>
</g>
<!-- apps/admin/from&#45;tsconfig&#45;base&#45;url.ts -->
<g id="node5" class="node">
<title>apps/admin/from&#45;tsconfig&#45;base&#45;url.ts</title>
<g id="a_node5"><a xlink:href="apps/admin/from-tsconfig-base-url.ts" xlink:title="from&#45;tsconfig&#45;base&#45;url.ts">
<path fill="#ddfeff" stroke="black" d="M371.21,-194.5C371.21,-194.5 268.79,-194.5 268.79,-194.5 265.83,-194.5 262.88,-191.54 262.88,-188.58 262.88,-188.58 262.88,-182.67 262.88,-182.67 262.88,-179.71 265.83,-176.75 268.79,-176.75 268.79,-176.75 371.21,-176.75 371.21,-176.75 374.17,-176.75 377.12,-179.71 377.12,-182.67 377.12,-182.67 377.12,-188.58 377.12,-188.58 377.12,-191.54 374.17,-194.5 371.21,-194.5"/>
<text text-anchor="start" x="270.88" y="-181.95" font-family="Helvetica,sans-Serif" font-size="9.00">from&#45;tsconfig&#45;base&#45;url.ts</text>
</a>
</g>
</g>
<!-- libs/wim/index.js -->
<g id="node6" class="node">
<title>libs/wim/index.js</title>
<g id="a_node6"><a xlink:href="libs/wim/index.js" xlink:title="index.js">
<path fill="#ffffcc" stroke="black" d="M363.08,-101.25C363.08,-101.25 320.92,-101.25 320.92,-101.25 317.96,-101.25 315,-98.29 315,-95.33 315,-95.33 315,-89.42 315,-89.42 315,-86.46 317.96,-83.5 320.92,-83.5 320.92,-83.5 363.08,-83.5 363.08,-83.5 366.04,-83.5 369,-86.46 369,-89.42 369,-89.42 369,-95.33 369,-95.33 369,-98.29 366.04,-101.25 363.08,-101.25"/>
<text text-anchor="start" x="326.25" y="-88.7" font-family="Helvetica,sans-Serif" font-size="9.00">index.js</text>
</a>
</g>
</g>
<!-- apps/admin/from&#45;tsconfig&#45;base&#45;url.ts&#45;&gt;libs/wim/index.js -->
<g id="edge3" class="edge">
<title>apps/admin/from&#45;tsconfig&#45;base&#45;url.ts&#45;&gt;libs/wim/index.js</title>
<path fill="none" stroke="teal" stroke-width="2" d="M321.95,-176.53C325.53,-161.68 333.21,-129.84 337.96,-110.15"/>
<polygon fill="teal" stroke="teal" stroke-width="2" points="339.95,-110.85 339.31,-104.53 335.86,-109.87 339.95,-110.85"/>
</g>
<!-- apps/admin/from&#45;tsconfig&#45;path&#45;star.ts -->
<g id="node7" class="node">
<title>apps/admin/from&#45;tsconfig&#45;path&#45;star.ts</title>
<g id="a_node7"><a xlink:href="apps/admin/from-tsconfig-path-star.ts" xlink:title="from&#45;tsconfig&#45;path&#45;star.ts">
<path fill="#ddfeff" stroke="black" d="M245.33,-194.5C245.33,-194.5 140.67,-194.5 140.67,-194.5 137.71,-194.5 134.75,-191.54 134.75,-188.58 134.75,-188.58 134.75,-182.67 134.75,-182.67 134.75,-179.71 137.71,-176.75 140.67,-176.75 140.67,-176.75 245.33,-176.75 245.33,-176.75 248.29,-176.75 251.25,-179.71 251.25,-182.67 251.25,-182.67 251.25,-188.58 251.25,-188.58 251.25,-191.54 248.29,-194.5 245.33,-194.5"/>
<text text-anchor="start" x="142.75" y="-181.95" font-family="Helvetica,sans-Serif" font-size="9.00">from&#45;tsconfig&#45;path&#45;star.ts</text>
</a>
</g>
</g>
<!-- libs/zus/index.js -->
<g id="node8" class="node">
<title>libs/zus/index.js</title>
<g id="a_node8"><a xlink:href="libs/zus/index.js" xlink:title="index.js">
<path fill="#ffffcc" stroke="black" d="M285.08,-101.25C285.08,-101.25 242.92,-101.25 242.92,-101.25 239.96,-101.25 237,-98.29 237,-95.33 237,-95.33 237,-89.42 237,-89.42 237,-86.46 239.96,-83.5 242.92,-83.5 242.92,-83.5 285.08,-83.5 285.08,-83.5 288.04,-83.5 291,-86.46 291,-89.42 291,-89.42 291,-95.33 291,-95.33 291,-98.29 288.04,-101.25 285.08,-101.25"/>
<text text-anchor="start" x="248.25" y="-88.7" font-family="Helvetica,sans-Serif" font-size="9.00">index.js</text>
</a>
</g>
</g>
<!-- apps/admin/from&#45;tsconfig&#45;path&#45;star.ts&#45;&gt;libs/zus/index.js -->
<g id="edge4" class="edge">
<title>apps/admin/from&#45;tsconfig&#45;path&#45;star.ts&#45;&gt;libs/zus/index.js</title>
<path fill="none" stroke="darkblue" stroke-width="2" d="M199.3,-176.53C211.17,-161.28 236.99,-128.09 252.18,-108.56"/>
<polygon fill="darkblue" stroke="darkblue" stroke-width="2" points="253.73,-110 255.75,-103.97 250.41,-107.42 253.73,-110"/>
</g>
<!-- apps/admin/from&#45;tsconfig&#45;path.ts -->
<g id="node9" class="node">
<title>apps/admin/from&#45;tsconfig&#45;path.ts</title>
<g id="a_node9"><a xlink:href="apps/admin/from-tsconfig-path.ts" xlink:title="from&#45;tsconfig&#45;path.ts">
<path fill="#ddfeff" stroke="black" d="M116.33,-194.5C116.33,-194.5 29.67,-194.5 29.67,-194.5 26.71,-194.5 23.75,-191.54 23.75,-188.58 23.75,-188.58 23.75,-182.67 23.75,-182.67 23.75,-179.71 26.71,-176.75 29.67,-176.75 29.67,-176.75 116.33,-176.75 116.33,-176.75 119.29,-176.75 122.25,-179.71 122.25,-182.67 122.25,-182.67 122.25,-188.58 122.25,-188.58 122.25,-191.54 119.29,-194.5 116.33,-194.5"/>
<text text-anchor="start" x="31.75" y="-181.95" font-family="Helvetica,sans-Serif" font-size="9.00">from&#45;tsconfig&#45;path.ts</text>
</a>
</g>
</g>
<!-- apps/admin/from&#45;tsconfig&#45;path.ts&#45;&gt;libs/zus/index.js -->
<g id="edge5" class="edge">
<title>apps/admin/from&#45;tsconfig&#45;path.ts&#45;&gt;libs/zus/index.js</title>
<path fill="none" stroke="darkblue" stroke-width="2" d="M90.29,-176.37C124.15,-160.19 199.35,-124.26 238.77,-105.43"/>
<polygon fill="darkblue" stroke="darkblue" stroke-width="2" points="239.37,-107.47 243.88,-102.99 237.56,-103.68 239.37,-107.47"/>
</g>
<!-- apps/admin/from&#45;workspace.ts -->
<g id="node10" class="node">
<title>apps/admin/from&#45;workspace.ts</title>
<g id="a_node10"><a xlink:href="apps/admin/from-workspace.ts" xlink:title="from&#45;workspace.ts">
<path fill="#ddfeff" stroke="black" d="M714.21,-194.5C714.21,-194.5 635.79,-194.5 635.79,-194.5 632.83,-194.5 629.88,-191.54 629.88,-188.58 629.88,-188.58 629.88,-182.67 629.88,-182.67 629.88,-179.71 632.83,-176.75 635.79,-176.75 635.79,-176.75 714.21,-176.75 714.21,-176.75 717.17,-176.75 720.12,-179.71 720.12,-182.67 720.12,-182.67 720.12,-188.58 720.12,-188.58 720.12,-191.54 717.17,-194.5 714.21,-194.5"/>
<text text-anchor="start" x="637.88" y="-181.95" font-family="Helvetica,sans-Serif" font-size="9.00">from&#45;workspace.ts</text>
</a>
</g>
</g>
<!-- apps/admin/from&#45;workspace.ts&#45;&gt;libs/noot/index.js -->
<g id="edge6" class="edge">
<title>apps/admin/from&#45;workspace.ts&#45;&gt;libs/noot/index.js</title>
<g id="a_edge6"><a xlink:title="to&#45;libs&#45;tsconfig&#45;only">
<path fill="none" stroke="purple" stroke-width="2" d="M671.61,-176.52C661.61,-152.59 632.09,-81.95 618.72,-49.95"/>
<polygon fill="purple" stroke="purple" stroke-width="2" points="620.82,-49.54 616.57,-44.81 616.95,-51.16 620.82,-49.54"/>
</a>
</g>
<text text-anchor="middle" x="603.78" y="-110.51" font-family="Helvetica,sans-Serif" font-size="9.00" fill="red">to&#45;libs&#45;tsconfig&#45;only</text>
</g>
</g>
</svg>
