<svg width="704" height="376pt" viewBox="0 0 528 376" xmlns="http://www.w3.org/2000/svg" xmlns:xlink="http://www.w3.org/1999/xlink"><g class="graph" transform="translate(4 372)"><path fill="#fff" stroke="transparent" d="M-4 4v-376h528V4H-4z"/><g class="cluster"><path fill="#fff" stroke="#000" stroke-width="2" d="M20-8h480c6 0 12-6 12-12v-328c0-6-6-12-12-12H20c-6 0-12 6-12 12v328c0 6 6 12 12 12"/><text text-anchor="middle" x="260" y="-348.8" font-family="Helvetica,sans-Serif" font-weight="bold" font-size="9">src</text></g><g class="cluster"><path fill="#fff" stroke="#000" stroke-width="2" d="M28-16h464c6 0 12-6 12-12v-294c0-6-6-12-12-12H28c-6 0-12 6-12 12v294c0 6 6 12 12 12"/><text text-anchor="middle" x="260" y="-322.8" font-family="Helvetica,sans-Serif" font-weight="bold" font-size="9">modules</text></g><g class="cluster"><path fill="#fff" stroke="#000" stroke-width="2" d="M270-24h214c6 0 12-6 12-12v-62c0-6-6-12-12-12H270c-6 0-12 6-12 12v62c0 6 6 12 12 12"/><text text-anchor="middle" x="377" y="-98.8" font-family="Helvetica,sans-Serif" font-weight="bold" font-size="9">authentication</text></g><g class="cluster"><path fill="#fff" stroke="#000" stroke-width="2" d="M430-32h46c6 0 12-6 12-12v-28c0-6-6-12-12-12h-46c-6 0-12 6-12 12v28c0 6 6 12 12 12"/><text text-anchor="middle" x="453" y="-72.8" font-family="Helvetica,sans-Serif" font-weight="bold" font-size="9">incoming</text></g><g class="cluster"><path fill="#fff" stroke="#000" stroke-width="2" d="M278-32h46c6 0 12-6 12-12v-28c0-6-6-12-12-12h-46c-6 0-12 6-12 12v28c0 6 6 12 12 12"/><text text-anchor="middle" x="301" y="-72.8" font-family="Helvetica,sans-Serif" font-weight="bold" font-size="9">outgoing</text></g><g class="cluster"><path fill="#fff" stroke="#000" stroke-width="2" d="M36-222h202c6 0 12-6 12-12v-62c0-6-6-12-12-12H36c-6 0-12 6-12 12v62c0 6 6 12 12 12"/><text text-anchor="middle" x="137" y="-296.8" font-family="Helvetica,sans-Serif" font-weight="bold" font-size="9">payment</text></g><g class="cluster"><path fill="#fff" stroke="#000" stroke-width="2" d="M184-230h46c6 0 12-6 12-12v-28c0-6-6-12-12-12h-46c-6 0-12 6-12 12v28c0 6 6 12 12 12"/><text text-anchor="middle" x="207" y="-270.8" font-family="Helvetica,sans-Serif" font-weight="bold" font-size="9">incoming</text></g><g class="cluster"><path fill="#fff" stroke="#000" stroke-width="2" d="M44-230h46c6 0 12-6 12-12v-28c0-6-6-12-12-12H44c-6 0-12 6-12 12v28c0 6 6 12 12 12"/><text text-anchor="middle" x="67" y="-270.8" font-family="Helvetica,sans-Serif" font-weight="bold" font-size="9">outgoing</text></g><g class="cluster"><path fill="#fff" stroke="#000" stroke-width="2" d="M36-118h300c6 0 12-6 12-12v-72c0-6-6-12-12-12H36c-6 0-12 6-12 12v72c0 6 6 12 12 12"/><text text-anchor="middle" x="186" y="-202.8" font-family="Helvetica,sans-Serif" font-weight="bold" font-size="9">user</text></g><g class="cluster"><path fill="#fff" stroke="#000" stroke-width="2" d="M184-126h46c6 0 12-6 12-12v-28c0-6-6-12-12-12h-46c-6 0-12 6-12 12v28c0 6 6 12 12 12"/><text text-anchor="middle" x="207" y="-166.8" font-family="Helvetica,sans-Serif" font-weight="bold" font-size="9">incoming</text></g><g class="cluster"><path fill="#fff" stroke="#000" stroke-width="2" d="M44-131h46c6 0 12-6 12-12v-28c0-6-6-12-12-12H44c-6 0-12 6-12 12v28c0 6 6 12 12 12"/><text text-anchor="middle" x="67" y="-171.8" font-family="Helvetica,sans-Serif" font-weight="bold" font-size="9">outgoing</text></g><g class="node"><a xlink:href="src/modules/authentication/incoming/index.js" xlink:title="index.js"><path fill="#ccf" stroke="#000" d="M474-58h-42c-3 0-6 3-6 6v6c0 3 3 6 6 6h42c3 0 6-3 6-6v-6c0-3-3-6-6-6"/><text x="437" y="-46.8" font-family="Helvetica,sans-Serif" font-size="9">index.js</text></a></g><g class="node"><a xlink:href="src/modules/authentication/index.js" xlink:title="index.js"><path fill="#ffc" stroke="#000" d="M404-71h-42c-3 0-6 3-6 6v6c0 3 3 6 6 6h42c3 0 6-3 6-6v-6c0-3-3-6-6-6"/><text x="367" y="-59.8" font-family="Helvetica,sans-Serif" font-size="9">index.js</text></a></g><g class="edge"><path fill="none" stroke="green" stroke-width="2" d="M383-52.8v6.3h36.74"/><path fill="green" stroke="green" stroke-width="2" d="m419.74-48.6 6 2.1-6 2.1v-4.2z"/></g><g class="node"><a xlink:href="src/modules/authentication/outgoing/index.js" xlink:title="index.js"><path fill="#cfc" stroke="#000" d="M322-58h-42c-3 0-6 3-6 6v6c0 3 3 6 6 6h42c3 0 6-3 6-6v-6c0-3-3-6-6-6"/><text x="285" y="-46.8" font-family="Helvetica,sans-Serif" font-size="9">index.js</text></a></g><g class="edge"><path fill="none" stroke="green" stroke-width="2" d="M301-58.16v-3.09h48.7"/><path fill="green" stroke="green" stroke-width="2" d="m349.7-63.35 6 2.1-6 2.1v-4.2z"/></g><g class="node"><a xlink:href="src/modules/payment/incoming/index.js" xlink:title="index.js"><path fill="#ccf" stroke="#000" d="M228-256h-42c-3 0-6 3-6 6v6c0 3 3 6 6 6h42c3 0 6-3 6-6v-6c0-3-3-6-6-6"/><text x="191" y="-244.8" font-family="Helvetica,sans-Serif" font-size="9">index.js</text></a></g><g class="node"><a xlink:href="src/modules/payment/index.js" xlink:title="index.js"><path fill="#ffc" stroke="#000" d="M158-256h-42c-3 0-6 3-6 6v6c0 3 3 6 6 6h42c3 0 6-3 6-6v-6c0-3-3-6-6-6"/><text x="121" y="-244.8" font-family="Helvetica,sans-Serif" font-size="9">index.js</text></a></g><g class="edge"><path fill="none" stroke="green" stroke-width="2" d="M164.26-247h9.43"/><path fill="green" stroke="green" stroke-width="2" d="m173.7-249.1 5.99 2.1-6 2.1.01-4.2z"/></g><g class="node"><a xlink:href="src/modules/payment/outgoing/index.js" xlink:title="index.js"><path fill="#cfc" stroke="#000" d="M88-256H46c-3 0-6 3-6 6v6c0 3 3 6 6 6h42c3 0 6-3 6-6v-6c0-3-3-6-6-6"/><text x="51" y="-244.8" font-family="Helvetica,sans-Serif" font-size="9">index.js</text></a></g><g class="edge"><path fill="none" stroke="green" stroke-width="2" d="M94.26-247h9.43"/><path fill="green" stroke="green" stroke-width="2" d="m103.7-249.1 5.99 2.1-6 2.1.01-4.2z"/></g><g class="node"><a xlink:href="src/modules/user/incoming/index.js" xlink:title="index.js"><path fill="#ccf" stroke="#000" d="M228-152h-42c-3 0-6 3-6 6v6c0 3 3 6 6 6h42c3 0 6-3 6-6v-6c0-3-3-6-6-6"/><text x="191" y="-140.8" font-family="Helvetica,sans-Serif" font-size="9">index.js</text></a></g><g class="edge"><a xlink:title="incoming-only-to-external-outgoing"><path fill="none" stroke="#00f" stroke-width="2" d="M216-133.77v66.02h133.8"/><path fill="#00f" stroke="#00f" stroke-width="2" d="m349.8-69.85 6 2.1-6 2.1v-4.2z"/></a><text text-anchor="middle" x="177.89" y="-70.55" font-family="Helvetica,sans-Serif" font-size="9" fill="#00f">incoming-only-to-external-outgoing</text></g><g class="edge"><path fill="none" stroke="green" stroke-width="2" d="M198-133.94V-52h69.94"/><path fill="green" stroke="green" stroke-width="2" d="m267.94-54.1 6 2.1-6 2.1v-4.2z"/></g><g class="node"><a xlink:href="src/modules/user/some-utensil.js" xlink:title="some-utensil.js"><path fill="#ffc" stroke="#000" d="M334-148h-66c-3 0-6 3-6 6v6c0 3 3 6 6 6h66c3 0 6-3 6-6v-6c0-3-3-6-6-6"/><text x="270" y="-136.8" font-family="Helvetica,sans-Serif" font-size="9">some-utensil.js</text></a></g><g class="edge"><path fill="none" stroke="green" stroke-width="2" d="M234.19-141h21.8"/><path fill="green" stroke="green" stroke-width="2" d="m255.99-143.1 6 2.1-6 2.1v-4.2z"/></g><g class="node"><a xlink:href="src/modules/user/index.js" xlink:title="index.js"><path fill="#ffc" stroke="#000" d="M158-157h-42c-3 0-6 3-6 6v6c0 3 3 6 6 6h42c3 0 6-3 6-6v-6c0-3-3-6-6-6"/><text x="121" y="-145.8" font-family="Helvetica,sans-Serif" font-size="9">index.js</text></a></g><g class="edge"><a xlink:title="no-cross-module-import"><path fill="none" stroke="red" stroke-width="2" d="M128-138.75v74.25h221.71"/><path fill="red" stroke="red" stroke-width="2" d="m349.71-66.6 6 2.1-6 2.1v-4.2z"/></a><text text-anchor="middle" x="152.73" y="-57.3" font-family="Helvetica,sans-Serif" font-size="9" fill="red">no-cross-module-import</text></g><g class="edge"><path fill="none" stroke="green" stroke-width="2" d="M164.26-145.5h9.43"/><path fill="green" stroke="green" stroke-width="2" d="m173.7-147.6 5.99 2.1-6 2.1.01-4.2z"/></g><g class="edge"><path fill="none" stroke="green" stroke-width="2" d="M146-138.84v38.34h122v-23.18"/><path fill="green" stroke="green" stroke-width="2" d="m265.9-123.68 2.1-6 2.1 6h-4.2z"/></g><g class="node"><a xlink:href="src/modules/user/outgoing/index.js" xlink:title="index.js"><path fill="#cfc" stroke="#000" d="M88-157H46c-3 0-6 3-6 6v6c0 3 3 6 6 6h42c3 0 6-3 6-6v-6c0-3-3-6-6-6"/><text x="51" y="-145.8" font-family="Helvetica,sans-Serif" font-size="9">index.js</text></a></g><g class="edge"><a xlink:title="no-cross-module-import"><path fill="none" stroke="red" stroke-width="2" d="M67-138.95V-46h200.7"/><path fill="red" stroke="red" stroke-width="2" d="m267.7-48.1 6 2.1-6 2.1v-4.2z"/></a><text text-anchor="middle" x="71.88" y="-38.8" font-family="Helvetica,sans-Serif" font-size="9" fill="red">no-cross-module-import</text></g><g class="edge"><path fill="none" stroke="green" stroke-width="2" d="M94.26-148h9.43"/><path fill="green" stroke="green" stroke-width="2" d="m103.7-150.1 5.99 2.1-6 2.1.01-4.2z"/></g></g></svg>