<?xml version="1.0" encoding="UTF-8" standalone="no"?>
<!DOCTYPE svg PUBLIC "-//W3C//DTD SVG 1.1//EN"
 "http://www.w3.org/Graphics/SVG/1.1/DTD/svg11.dtd">
<!-- Generated by graphviz version 2.44.0 (20200408.0750)
 -->
<!-- Title: dependency&#45;cruiser output Pages: 1 -->
<svg width="209pt" height="204pt"
 viewBox="0.00 0.00 209.00 204.00" xmlns="http://www.w3.org/2000/svg" xmlns:xlink="http://www.w3.org/1999/xlink">
<g id="graph0" class="graph" transform="scale(1 1) rotate(0) translate(4 200)">
<title>dependency&#45;cruiser output</title>
<polygon fill="white" stroke="transparent" points="-4,4 -4,-200 205,-200 205,4 -4,4"/>
<g id="clust1" class="cluster">
<title>cluster_node_modules</title>
<path fill="#ffffff" stroke="black" stroke-width="2" d="M114,-8C114,-8 170,-8 170,-8 176,-8 182,-14 182,-20 182,-20 182,-48 182,-48 182,-54 176,-60 170,-60 170,-60 114,-60 114,-60 108,-60 102,-54 102,-48 102,-48 102,-20 102,-20 102,-14 108,-8 114,-8"/>
<text text-anchor="middle" x="142" y="-48.8" font-family="Helvetica,sans-Serif" font-weight="bold" font-size="9.00">node_modules</text>
</g>
<g id="clust2" class="cluster">
<title>cluster_packages</title>
<path fill="#ffffff" stroke="black" stroke-width="2" d="M20,-68C20,-68 186,-68 186,-68 192,-68 198,-74 198,-80 198,-80 198,-176 198,-176 198,-182 192,-188 186,-188 186,-188 20,-188 20,-188 14,-188 8,-182 8,-176 8,-176 8,-80 8,-80 8,-74 14,-68 20,-68"/>
<text text-anchor="middle" x="103" y="-176.8" font-family="Helvetica,sans-Serif" font-weight="bold" font-size="9.00">packages</text>
</g>
<g id="clust3" class="cluster">
<title>cluster_packages/package&#45;a</title>
<path fill="#ffffff" stroke="black" stroke-width="2" d="M28,-76C28,-76 178,-76 178,-76 184,-76 190,-82 190,-88 190,-88 190,-150 190,-150 190,-156 184,-162 178,-162 178,-162 28,-162 28,-162 22,-162 16,-156 16,-150 16,-150 16,-88 16,-88 16,-82 22,-76 28,-76"/>
<text text-anchor="middle" x="103" y="-150.8" font-family="Helvetica,sans-Serif" font-weight="bold" font-size="9.00">package&#45;a</text>
</g>
<g id="clust4" class="cluster">
<title>cluster_packages/package&#45;a/node_modules</title>
<path fill="#ffffff" stroke="black" stroke-width="2" d="M114,-84C114,-84 170,-84 170,-84 176,-84 182,-90 182,-96 182,-96 182,-124 182,-124 182,-130 176,-136 170,-136 170,-136 114,-136 114,-136 108,-136 102,-130 102,-124 102,-124 102,-96 102,-96 102,-90 108,-84 114,-84"/>
<text text-anchor="middle" x="142" y="-124.8" font-family="Helvetica,sans-Serif" font-weight="bold" font-size="9.00">node_modules</text>
</g>
<!-- index.ts -->
<g id="node1" class="node">
<title>index.ts</title>
<g id="a_node1"><a xlink:href="index.ts" xlink:title="index.ts">
<path fill="#ddfeff" stroke="black" d="M72,-34C72,-34 30,-34 30,-34 27,-34 24,-31 24,-28 24,-28 24,-22 24,-22 24,-19 27,-16 30,-16 30,-16 72,-16 72,-16 75,-16 78,-19 78,-22 78,-22 78,-28 78,-28 78,-31 75,-34 72,-34"/>
<text text-anchor="middle" x="51" y="-22.8" font-family="Helvetica,sans-Serif" font-size="9.00">index.ts</text>
</a>
</g>
</g>
<!-- node_modules/date&#45;fns/ -->
<g id="node2" class="node">
<title>node_modules/date&#45;fns/</title>
<g id="a_node2"><a xlink:href="node_modules/date-fns/" xlink:title="date&#45;fns">
<polygon fill="#c40b0a" fill-opacity="0.101961" stroke="black" points="169,-34 117,-34 115,-32 115,-16 167,-16 169,-18 169,-34"/>
<polyline fill="none" stroke="black" points="167,-32 115,-32 "/>
<polyline fill="none" stroke="black" points="167,-32 167,-16 "/>
<polyline fill="none" stroke="black" points="167,-32 169,-34 "/>
<text text-anchor="middle" x="142" y="-22.8" font-family="Helvetica,sans-Serif" font-size="9.00" fill="#c40b0a">date&#45;fns</text>
</a>
</g>
</g>
<!-- index.ts&#45;&gt;node_modules/date&#45;fns/ -->
<g id="edge1" class="edge">
<title>index.ts&#45;&gt;node_modules/date&#45;fns/</title>
<path fill="none" stroke="#000000" stroke-dasharray="5,2" stroke-opacity="0.200000" d="M78.22,-25C87.82,-25 98.79,-25 108.84,-25"/>
<polygon fill="#000000" fill-opacity="0.200000" stroke="#000000" stroke-opacity="0.200000" points="108.97,-27.1 114.97,-25 108.97,-22.9 108.97,-27.1"/>
</g>
<!-- packages/package&#45;a/index.ts -->
<g id="node3" class="node">
<title>packages/package&#45;a/index.ts</title>
<g id="a_node3"><a xlink:href="packages/package-a/index.ts" xlink:title="index.ts">
<path fill="#ddfeff" stroke="black" d="M72,-110C72,-110 30,-110 30,-110 27,-110 24,-107 24,-104 24,-104 24,-98 24,-98 24,-95 27,-92 30,-92 30,-92 72,-92 72,-92 75,-92 78,-95 78,-98 78,-98 78,-104 78,-104 78,-107 75,-110 72,-110"/>
<text text-anchor="middle" x="51" y="-98.8" font-family="Helvetica,sans-Serif" font-size="9.00">index.ts</text>
</a>
</g>
</g>
<!-- packages/package&#45;a/node_modules/date&#45;fns/ -->
<g id="node4" class="node">
<title>packages/package&#45;a/node_modules/date&#45;fns/</title>
<g id="a_node4"><a xlink:href="packages/package-a/node_modules/date-fns/" xlink:title="date&#45;fns">
<polygon fill="#c40b0a" fill-opacity="0.101961" stroke="black" points="169,-110 117,-110 115,-108 115,-92 167,-92 169,-94 169,-110"/>
<polyline fill="none" stroke="black" points="167,-108 115,-108 "/>
<polyline fill="none" stroke="black" points="167,-108 167,-92 "/>
<polyline fill="none" stroke="black" points="167,-108 169,-110 "/>
<text text-anchor="middle" x="142" y="-98.8" font-family="Helvetica,sans-Serif" font-size="9.00" fill="#c40b0a">date&#45;fns</text>
</a>
</g>
</g>
<!-- packages/package&#45;a/index.ts&#45;&gt;packages/package&#45;a/node_modules/date&#45;fns/ -->
<g id="edge2" class="edge">
<title>packages/package&#45;a/index.ts&#45;&gt;packages/package&#45;a/node_modules/date&#45;fns/</title>
<path fill="none" stroke="#000000" stroke-dasharray="5,2" stroke-opacity="0.200000" d="M78.22,-101C87.82,-101 98.79,-101 108.84,-101"/>
<polygon fill="#000000" fill-opacity="0.200000" stroke="#000000" stroke-opacity="0.200000" points="108.97,-103.1 114.97,-101 108.97,-98.9 108.97,-103.1"/>
</g>
</g>
</svg>
