<?xml version="1.0" encoding="UTF-8" standalone="no"?>
<!DOCTYPE svg PUBLIC "-//W3C//DTD SVG 1.1//EN"
 "http://www.w3.org/Graphics/SVG/1.1/DTD/svg11.dtd">
<!-- Generated by graphviz version 2.44.0 (20200408.0750)
 -->
<!-- Title: dependency&#45;cruiser output Pages: 1 -->
<svg width="166pt" height="76pt"
 viewBox="0.00 0.00 166.00 76.00" xmlns="http://www.w3.org/2000/svg" xmlns:xlink="http://www.w3.org/1999/xlink">
<g id="graph0" class="graph" transform="scale(1 1) rotate(0) translate(4 72)">
<title>dependency&#45;cruiser output</title>
<polygon fill="white" stroke="transparent" points="-4,4 -4,-72 162,-72 162,4 -4,4"/>
<g id="clust1" class="cluster">
<title>cluster_src</title>
<path fill="#ffffff" stroke="black" stroke-width="2" d="M20,-8C20,-8 138,-8 138,-8 144,-8 150,-14 150,-20 150,-20 150,-48 150,-48 150,-54 144,-60 138,-60 138,-60 20,-60 20,-60 14,-60 8,-54 8,-48 8,-48 8,-20 8,-20 8,-14 14,-8 20,-8"/>
<text text-anchor="middle" x="79" y="-48.8" font-family="Helvetica,sans-Serif" font-weight="bold" font-size="9.00">src</text>
</g>
<!-- src/controllers -->
<g id="node1" class="node">
<title>src/controllers</title>
<g id="a_node1"><a xlink:href="src/controllers" xlink:title="controllers">
<polygon fill="#ccffcc" stroke="black" points="75,-34 18,-34 16,-32 16,-16 73,-16 75,-18 75,-34"/>
<polyline fill="none" stroke="black" points="73,-32 16,-32 "/>
<polyline fill="none" stroke="black" points="73,-32 73,-16 "/>
<polyline fill="none" stroke="black" points="73,-32 75,-34 "/>
<text text-anchor="middle" x="45.5" y="-22.8" font-family="Helvetica,sans-Serif" font-size="9.00">controllers</text>
</a>
</g>
</g>
<!-- src/model -->
<g id="node2" class="node">
<title>src/model</title>
<g id="a_node2"><a xlink:href="src/model" xlink:title="model">
<polygon fill="#ccccff" stroke="black" points="142,-34 90,-34 88,-32 88,-16 140,-16 142,-18 142,-34"/>
<polyline fill="none" stroke="black" points="140,-32 88,-32 "/>
<polyline fill="none" stroke="black" points="140,-32 140,-16 "/>
<polyline fill="none" stroke="black" points="140,-32 142,-34 "/>
<text text-anchor="middle" x="115" y="-22.8" font-family="Helvetica,sans-Serif" font-size="9.00">model</text>
</a>
</g>
</g>
<!-- src/controllers&#45;&gt;src/model -->
<g id="edge1" class="edge">
<title>src/controllers&#45;&gt;src/model</title>
<path fill="none" stroke="#0000ff" stroke-width="2" stroke-opacity="0.466667" d="M75.38,-25C75.38,-25 81.78,-25 81.78,-25"/>
<polygon fill="#0000ff" fill-opacity="0.466667" stroke="#0000ff" stroke-width="2" stroke-opacity="0.466667" points="81.78,-27.1 87.78,-25 81.78,-22.9 81.78,-27.1"/>
</g>
</g>
</svg>
