<?xml version="1.0" encoding="UTF-8" standalone="no"?>
<!DOCTYPE svg PUBLIC "-//W3C//DTD SVG 1.1//EN"
 "http://www.w3.org/Graphics/SVG/1.1/DTD/svg11.dtd">
<!-- Generated by graphviz version 9.0.0 (20230911.1827)
 -->
<!-- Title: dependency&#45;cruiser output Pages: 1 -->
<svg width="162pt" height="76pt"
 viewBox="0.00 0.00 162.00 76.00" xmlns="http://www.w3.org/2000/svg" xmlns:xlink="http://www.w3.org/1999/xlink">
<g id="graph0" class="graph" transform="scale(1 1) rotate(0) translate(4 72)">
<title>dependency&#45;cruiser output</title>
<polygon fill="white" stroke="none" points="-4,4 -4,-72 158,-72 158,4 -4,4"/>
<g id="clust1" class="cluster">
<title>cluster_src</title>
<path fill="#ffffff" stroke="black" stroke-width="2" d="M20,-8C20,-8 134,-8 134,-8 140,-8 146,-14 146,-20 146,-20 146,-48 146,-48 146,-54 140,-60 134,-60 134,-60 20,-60 20,-60 14,-60 8,-54 8,-48 8,-48 8,-20 8,-20 8,-14 14,-8 20,-8"/>
<text text-anchor="middle" x="77" y="-47.45" font-family="Helvetica,sans-Serif" font-weight="bold" font-size="9.00">src</text>
</g>
<!-- src/index.ts -->
<g id="node1" class="node">
<title>src/index.ts</title>
<g id="a_node1"><a xlink:href="src/index.ts" xlink:title="index.ts">
<path fill="#ddfeff" stroke="black" d="M64.08,-33.88C64.08,-33.88 21.92,-33.88 21.92,-33.88 18.96,-33.88 16,-30.92 16,-27.96 16,-27.96 16,-22.04 16,-22.04 16,-19.08 18.96,-16.12 21.92,-16.12 21.92,-16.12 64.08,-16.12 64.08,-16.12 67.04,-16.12 70,-19.08 70,-22.04 70,-22.04 70,-27.96 70,-27.96 70,-30.92 67.04,-33.88 64.08,-33.88"/>
<text text-anchor="start" x="27.25" y="-21.32" font-family="Helvetica,sans-Serif" font-size="9.00">index.ts</text>
</a>
</g>
</g>
<!-- src/version.ts -->
<g id="node2" class="node">
<title>src/version.ts</title>
<g id="a_node2"><a xlink:href="src/version.ts" xlink:title="version.ts">
<path fill="#ddfeff" stroke="black" d="M132.08,-33.88C132.08,-33.88 88.92,-33.88 88.92,-33.88 85.96,-33.88 83,-30.92 83,-27.96 83,-27.96 83,-22.04 83,-22.04 83,-19.08 85.96,-16.12 88.92,-16.12 88.92,-16.12 132.08,-16.12 132.08,-16.12 135.04,-16.12 138,-19.08 138,-22.04 138,-22.04 138,-27.96 138,-27.96 138,-30.92 135.04,-33.88 132.08,-33.88"/>
<text text-anchor="start" x="91" y="-21.32" font-family="Helvetica,sans-Serif" font-size="9.00">version.ts</text>
</a>
</g>
</g>
<!-- src/index.ts&#45;&gt;src/version.ts -->
<g id="edge1" class="edge">
<title>src/index.ts&#45;&gt;src/version.ts</title>
<path fill="none" stroke="#000000" stroke-width="2" stroke-opacity="0.200000" d="M70.26,-25C71.55,-25 72.86,-25 74.17,-25"/>
<polygon fill="#000000" fill-opacity="0.200000" stroke="#000000" stroke-width="2" stroke-opacity="0.200000" points="73.78,-27.1 79.78,-25 73.78,-22.9 73.78,-27.1"/>
</g>
</g>
</svg>
