<?xml version="1.0" encoding="UTF-8" standalone="no"?>
<!DOCTYPE svg PUBLIC "-//W3C//DTD SVG 1.1//EN"
 "http://www.w3.org/Graphics/SVG/1.1/DTD/svg11.dtd">
<!-- Generated by graphviz version 2.47.1 (20210417.1919)
 -->
<!-- Title: dependency&#45;cruiser output Pages: 1 -->
<svg width="295pt" height="104pt"
 viewBox="0.00 0.00 295.00 104.00" xmlns="http://www.w3.org/2000/svg" xmlns:xlink="http://www.w3.org/1999/xlink">
<g id="graph0" class="graph" transform="scale(1 1) rotate(0) translate(4 100)">
<title>dependency&#45;cruiser output</title>
<polygon fill="white" stroke="transparent" points="-4,4 -4,-100 291,-100 291,4 -4,4"/>
<g id="clust1" class="cluster">
<title>cluster_src</title>
<path fill="#ffffff" stroke="black" stroke-width="2" d="M20,-8C20,-8 267,-8 267,-8 273,-8 279,-14 279,-20 279,-20 279,-76 279,-76 279,-82 273,-88 267,-88 267,-88 20,-88 20,-88 14,-88 8,-82 8,-76 8,-76 8,-20 8,-20 8,-14 14,-8 20,-8"/>
<text text-anchor="middle" x="143.5" y="-76.8" font-family="Helvetica,sans-Serif" font-weight="bold" font-size="9.00">src</text>
</g>
<!-- src/bar/ -->
<g id="node1" class="node">
<title>src/bar/</title>
<g id="a_node1"><a xlink:href="https://github.com/sverweij/dependency-cruiser-repro-repo/tree/main/462/src/bar/" xlink:title="bar">
<polygon fill="#ffffcc" stroke="black" points="137,-34 85,-34 83,-32 83,-16 135,-16 137,-18 137,-34"/>
<polyline fill="none" stroke="black" points="135,-32 83,-32 "/>
<polyline fill="none" stroke="black" points="135,-32 135,-16 "/>
<polyline fill="none" stroke="black" points="135,-32 137,-34 "/>
<text text-anchor="middle" x="110" y="-22.8" font-family="Helvetica,sans-Serif" font-size="9.00">bar</text>
</a>
</g>
</g>
<!-- src/foo/ -->
<g id="node2" class="node">
<title>src/foo/</title>
<g id="a_node2"><a xlink:href="https://github.com/sverweij/dependency-cruiser-repro-repo/tree/main/462/src/foo/" xlink:title="foo">
<polygon fill="#ffffcc" stroke="black" points="271,-48 219,-48 217,-46 217,-30 269,-30 271,-32 271,-48"/>
<polyline fill="none" stroke="black" points="269,-46 217,-46 "/>
<polyline fill="none" stroke="black" points="269,-46 269,-30 "/>
<polyline fill="none" stroke="black" points="269,-46 271,-48 "/>
<text text-anchor="middle" x="244" y="-36.8" font-family="Helvetica,sans-Serif" font-size="9.00">foo</text>
</a>
</g>
</g>
<!-- src/bar/&#45;&gt;src/foo/ -->
<g id="edge1" class="edge">
<title>src/bar/&#45;&gt;src/foo/</title>
<path fill="none" stroke="#000000" stroke-width="2" stroke-opacity="0.200000" d="M137.12,-20.67C176.27,-20.67 244,-20.67 244,-20.67 244,-20.67 244,-23.83 244,-23.83"/>
<polygon fill="#000000" fill-opacity="0.200000" stroke="#000000" stroke-width="2" stroke-opacity="0.200000" points="241.9,-23.83 244,-29.83 246.1,-23.83 241.9,-23.83"/>
</g>
<!-- src/baz/ -->
<g id="node3" class="node">
<title>src/baz/</title>
<g id="a_node3"><a xlink:href="https://github.com/sverweij/dependency-cruiser-repro-repo/tree/main/462/src/baz/" xlink:title="baz">
<polygon fill="#ffffcc" stroke="black" points="204,-48 152,-48 150,-46 150,-30 202,-30 204,-32 204,-48"/>
<polyline fill="none" stroke="black" points="202,-46 150,-46 "/>
<polyline fill="none" stroke="black" points="202,-46 202,-30 "/>
<polyline fill="none" stroke="black" points="202,-46 204,-48 "/>
<text text-anchor="middle" x="177" y="-36.8" font-family="Helvetica,sans-Serif" font-size="9.00">baz</text>
</a>
</g>
</g>
<!-- src/bar/&#45;&gt;src/baz/ -->
<g id="edge2" class="edge">
<title>src/bar/&#45;&gt;src/baz/</title>
<path fill="none" stroke="#000000" stroke-width="2" stroke-opacity="0.200000" d="M137.25,-25.33C155.8,-25.33 177,-25.33 177,-25.33 177,-25.33 177,-25.8 177,-25.8"/>
<polygon fill="#000000" fill-opacity="0.200000" stroke="#000000" stroke-width="2" stroke-opacity="0.200000" points="174.9,-23.96 177,-29.96 179.1,-23.96 174.9,-23.96"/>
</g>
<!-- src/baz/&#45;&gt;src/foo/ -->
<g id="edge3" class="edge">
<title>src/baz/&#45;&gt;src/foo/</title>
<path fill="none" stroke="#000000" stroke-width="2" stroke-opacity="0.200000" d="M204.25,-39C204.25,-39 210.99,-39 210.99,-39"/>
<polygon fill="#000000" fill-opacity="0.200000" stroke="#000000" stroke-width="2" stroke-opacity="0.200000" points="210.99,-41.1 216.99,-39 210.99,-36.9 210.99,-41.1"/>
</g>
<!-- src/toto.js -->
<g id="node4" class="node">
<title>src/toto.js</title>
<g id="a_node4"><a xlink:href="https://github.com/sverweij/dependency-cruiser-repro-repo/tree/main/462/src/toto.js" xlink:title="toto.js">
<path fill="#ffffcc" stroke="black" d="M64,-56C64,-56 22,-56 22,-56 19,-56 16,-53 16,-50 16,-50 16,-44 16,-44 16,-41 19,-38 22,-38 22,-38 64,-38 64,-38 67,-38 70,-41 70,-44 70,-44 70,-50 70,-50 70,-53 67,-56 64,-56"/>
<text text-anchor="middle" x="43" y="-44.8" font-family="Helvetica,sans-Serif" font-size="9.00">toto.js</text>
</a>
</g>
</g>
<!-- src/toto.js&#45;&gt;src/bar/ -->
<g id="edge4" class="edge">
<title>src/toto.js&#45;&gt;src/bar/</title>
<path fill="none" stroke="#000000" stroke-width="2" stroke-opacity="0.200000" d="M70.25,-41.33C88.8,-41.33 110,-41.33 110,-41.33 110,-41.33 110,-40.31 110,-40.31"/>
<polygon fill="#000000" fill-opacity="0.200000" stroke="#000000" stroke-width="2" stroke-opacity="0.200000" points="112.1,-40.31 110,-34.31 107.9,-40.31 112.1,-40.31"/>
</g>
<!-- src/toto.js&#45;&gt;src/foo/ -->
<g id="edge6" class="edge">
<title>src/toto.js&#45;&gt;src/foo/</title>
<path fill="none" stroke="#000000" stroke-width="2" stroke-opacity="0.200000" d="M70.11,-52C124.97,-52 244,-52 244,-52 244,-52 244,-51.62 244,-51.62"/>
<polygon fill="#000000" fill-opacity="0.200000" stroke="#000000" stroke-width="2" stroke-opacity="0.200000" points="246.1,-54.17 244,-48.17 241.9,-54.17 246.1,-54.17"/>
</g>
<!-- src/toto.js&#45;&gt;src/baz/ -->
<g id="edge5" class="edge">
<title>src/toto.js&#45;&gt;src/baz/</title>
<path fill="none" stroke="#000000" stroke-width="2" stroke-opacity="0.200000" d="M70.12,-44.67C70.12,-44.67 143.92,-44.67 143.92,-44.67"/>
<polygon fill="#000000" fill-opacity="0.200000" stroke="#000000" stroke-width="2" stroke-opacity="0.200000" points="143.92,-46.77 149.92,-44.67 143.92,-42.57 143.92,-46.77"/>
</g>
</g>
</svg>
