<?xml version="1.0" encoding="UTF-8" standalone="no"?>
<!DOCTYPE svg PUBLIC "-//W3C//DTD SVG 1.1//EN"
 "http://www.w3.org/Graphics/SVG/1.1/DTD/svg11.dtd">
<!-- Generated by graphviz version 2.49.0 (20210828.1703)
 -->
<!-- Title: dependency&#45;cruiser output Pages: 1 -->
<svg width="215pt" height="200pt"
 viewBox="0.00 0.00 215.00 200.00" xmlns="http://www.w3.org/2000/svg" xmlns:xlink="http://www.w3.org/1999/xlink">
<g id="graph0" class="graph" transform="scale(1 1) rotate(0) translate(4 196)">
<title>dependency&#45;cruiser output</title>
<polygon fill="white" stroke="transparent" points="-4,4 -4,-196 211,-196 211,4 -4,4"/>
<g id="clust1" class="cluster">
<title>cluster_src</title>
<path fill="#ffffff" stroke="black" stroke-width="2" d="M20,-8C20,-8 187,-8 187,-8 193,-8 199,-14 199,-20 199,-20 199,-172 199,-172 199,-178 193,-184 187,-184 187,-184 20,-184 20,-184 14,-184 8,-178 8,-172 8,-172 8,-20 8,-20 8,-14 14,-8 20,-8"/>
<text text-anchor="middle" x="103.5" y="-172.8" font-family="Helvetica,sans-Serif" font-weight="bold" font-size="9.00">src</text>
</g>
<g id="clust2" class="cluster">
<title>cluster_src/elements</title>
<path fill="#ffffff" stroke="black" stroke-width="2" d="M104,-106C104,-106 165,-106 165,-106 171,-106 177,-112 177,-118 177,-118 177,-146 177,-146 177,-152 171,-158 165,-158 165,-158 104,-158 104,-158 98,-158 92,-152 92,-146 92,-146 92,-118 92,-118 92,-112 98,-106 104,-106"/>
<text text-anchor="middle" x="134.5" y="-146.8" font-family="Helvetica,sans-Serif" font-weight="bold" font-size="9.00">elements</text>
</g>
<g id="clust3" class="cluster">
<title>cluster_src/helpers</title>
<path fill="#ffffff" stroke="black" stroke-width="2" d="M90,-16C90,-16 179,-16 179,-16 185,-16 191,-22 191,-28 191,-28 191,-86 191,-86 191,-92 185,-98 179,-98 179,-98 90,-98 90,-98 84,-98 78,-92 78,-86 78,-86 78,-28 78,-28 78,-22 84,-16 90,-16"/>
<text text-anchor="middle" x="134.5" y="-86.8" font-family="Helvetica,sans-Serif" font-weight="bold" font-size="9.00">helpers</text>
</g>
<!-- src/elements/RecoilUtils.ts -->
<g id="node1" class="node">
<title>src/elements/RecoilUtils.ts</title>
<g id="a_node1"><a xlink:href="src/elements/RecoilUtils.ts" xlink:title="RecoilUtils.ts">
<path fill="#ddfeff" stroke="black" d="M163,-132C163,-132 106,-132 106,-132 103,-132 100,-129 100,-126 100,-126 100,-120 100,-120 100,-117 103,-114 106,-114 106,-114 163,-114 163,-114 166,-114 169,-117 169,-120 169,-120 169,-126 169,-126 169,-129 166,-132 163,-132"/>
<text text-anchor="middle" x="134.5" y="-120.8" font-family="Helvetica,sans-Serif" font-size="9.00">RecoilUtils.ts</text>
</a>
</g>
</g>
<!-- src/file1.ts -->
<g id="node2" class="node">
<title>src/file1.ts</title>
<g id="a_node2"><a xlink:href="src/file1.ts" xlink:title="file1.ts">
<path fill="#ddfeff" stroke="black" d="M64,-158C64,-158 22,-158 22,-158 19,-158 16,-155 16,-152 16,-152 16,-146 16,-146 16,-143 19,-140 22,-140 22,-140 64,-140 64,-140 67,-140 70,-143 70,-146 70,-146 70,-152 70,-152 70,-155 67,-158 64,-158"/>
<text text-anchor="middle" x="43" y="-146.8" font-family="Helvetica,sans-Serif" font-size="9.00">file1.ts</text>
</a>
</g>
</g>
<!-- src/file1.ts&#45;&gt;src/elements/RecoilUtils.ts -->
<g id="edge1" class="edge">
<title>src/file1.ts&#45;&gt;src/elements/RecoilUtils.ts</title>
<path fill="none" stroke="#000000" stroke-width="2" stroke-opacity="0.200000" d="M70.11,-149C97.24,-149 135,-149 135,-149 135,-149 135,-138.09 135,-138.09"/>
<polygon fill="#000000" fill-opacity="0.200000" stroke="#000000" stroke-width="2" stroke-opacity="0.200000" points="137.1,-138.09 135,-132.09 132.9,-138.09 137.1,-138.09"/>
</g>
<!-- src/file2.ts -->
<g id="node3" class="node">
<title>src/file2.ts</title>
<g id="a_node3"><a xlink:href="src/file2.ts" xlink:title="file2.ts">
<path fill="#ddfeff" stroke="black" d="M64,-128C64,-128 22,-128 22,-128 19,-128 16,-125 16,-122 16,-122 16,-116 16,-116 16,-113 19,-110 22,-110 22,-110 64,-110 64,-110 67,-110 70,-113 70,-116 70,-116 70,-122 70,-122 70,-125 67,-128 64,-128"/>
<text text-anchor="middle" x="43" y="-116.8" font-family="Helvetica,sans-Serif" font-size="9.00">file2.ts</text>
</a>
</g>
</g>
<!-- src/file2.ts&#45;&gt;src/elements/RecoilUtils.ts -->
<g id="edge2" class="edge">
<title>src/file2.ts&#45;&gt;src/elements/RecoilUtils.ts</title>
<path fill="none" stroke="#000000" stroke-width="2" stroke-opacity="0.200000" d="M70.45,-121C70.45,-121 93.92,-121 93.92,-121"/>
<polygon fill="#000000" fill-opacity="0.200000" stroke="#000000" stroke-width="2" stroke-opacity="0.200000" points="93.92,-123.1 99.92,-121 93.92,-118.9 93.92,-123.1"/>
</g>
<!-- src/file3.ts -->
<g id="node4" class="node">
<title>src/file3.ts</title>
<g id="a_node4"><a xlink:href="src/file3.ts" xlink:title="file3.ts">
<path fill="#ccffcc" stroke="black" d="M64,-98C64,-98 22,-98 22,-98 19,-98 16,-95 16,-92 16,-92 16,-86 16,-86 16,-83 19,-80 22,-80 22,-80 64,-80 64,-80 67,-80 70,-83 70,-86 70,-86 70,-92 70,-92 70,-95 67,-98 64,-98"/>
<text text-anchor="middle" x="43" y="-86.8" font-family="Helvetica,sans-Serif" font-size="9.00">file3.ts</text>
</a>
</g>
</g>
<!-- src/file4.ts -->
<g id="node5" class="node">
<title>src/file4.ts</title>
<g id="a_node5"><a xlink:href="src/file4.ts" xlink:title="file4.ts">
<path fill="#ddfeff" stroke="black" d="M64,-68C64,-68 22,-68 22,-68 19,-68 16,-65 16,-62 16,-62 16,-56 16,-56 16,-53 19,-50 22,-50 22,-50 64,-50 64,-50 67,-50 70,-53 70,-56 70,-56 70,-62 70,-62 70,-65 67,-68 64,-68"/>
<text text-anchor="middle" x="43" y="-56.8" font-family="Helvetica,sans-Serif" font-size="9.00">file4.ts</text>
</a>
</g>
</g>
<!-- src/file4.ts&#45;&gt;src/elements/RecoilUtils.ts -->
<g id="edge3" class="edge">
<title>src/file4.ts&#45;&gt;src/elements/RecoilUtils.ts</title>
<path fill="none" stroke="#000000" stroke-width="2" stroke-opacity="0.200000" d="M70.29,-64.5C86.53,-64.5 104,-64.5 104,-64.5 104,-64.5 104,-107.86 104,-107.86"/>
<polygon fill="#000000" fill-opacity="0.200000" stroke="#000000" stroke-width="2" stroke-opacity="0.200000" points="101.9,-107.86 104,-113.86 106.1,-107.86 101.9,-107.86"/>
</g>
<!-- src/helpers/current.ts -->
<g id="node6" class="node">
<title>src/helpers/current.ts</title>
<g id="a_node6"><a xlink:href="src/helpers/current.ts" xlink:title="current.ts">
<path fill="#ddfeff" stroke="black" d="M155.5,-72C155.5,-72 113.5,-72 113.5,-72 110.5,-72 107.5,-69 107.5,-66 107.5,-66 107.5,-60 107.5,-60 107.5,-57 110.5,-54 113.5,-54 113.5,-54 155.5,-54 155.5,-54 158.5,-54 161.5,-57 161.5,-60 161.5,-60 161.5,-66 161.5,-66 161.5,-69 158.5,-72 155.5,-72"/>
<text text-anchor="middle" x="134.5" y="-60.8" font-family="Helvetica,sans-Serif" font-size="9.00">current.ts</text>
</a>
</g>
</g>
<!-- src/file4.ts&#45;&gt;src/helpers/current.ts -->
<g id="edge4" class="edge">
<title>src/file4.ts&#45;&gt;src/helpers/current.ts</title>
<path fill="none" stroke="#000000" stroke-width="2" stroke-opacity="0.200000" d="M70.45,-61C70.45,-61 101.38,-61 101.38,-61"/>
<polygon fill="#000000" fill-opacity="0.200000" stroke="#000000" stroke-width="2" stroke-opacity="0.200000" points="101.38,-63.1 107.38,-61 101.38,-58.9 101.38,-63.1"/>
</g>
<!-- src/helpers/schemasMethods.ts -->
<g id="node7" class="node">
<title>src/helpers/schemasMethods.ts</title>
<g id="a_node7"><a xlink:href="src/helpers/schemasMethods.ts" xlink:title="schemasMethods.ts">
<path fill="#ddfeff" stroke="black" d="M177,-42C177,-42 92,-42 92,-42 89,-42 86,-39 86,-36 86,-36 86,-30 86,-30 86,-27 89,-24 92,-24 92,-24 177,-24 177,-24 180,-24 183,-27 183,-30 183,-30 183,-36 183,-36 183,-39 180,-42 177,-42"/>
<text text-anchor="middle" x="134.5" y="-30.8" font-family="Helvetica,sans-Serif" font-size="9.00">schemasMethods.ts</text>
</a>
</g>
</g>
<!-- src/file4.ts&#45;&gt;src/helpers/schemasMethods.ts -->
<g id="edge5" class="edge">
<title>src/file4.ts&#45;&gt;src/helpers/schemasMethods.ts</title>
<path fill="none" stroke="#000000" stroke-width="2" stroke-opacity="0.200000" d="M70.05,-57.5C81.83,-57.5 93,-57.5 93,-57.5 93,-57.5 93,-48.12 93,-48.12"/>
<polygon fill="#000000" fill-opacity="0.200000" stroke="#000000" stroke-width="2" stroke-opacity="0.200000" points="95.1,-48.12 93,-42.12 90.9,-48.12 95.1,-48.12"/>
</g>
</g>
</svg>
