<?xml version="1.0" encoding="UTF-8" standalone="no"?>
<!DOCTYPE svg PUBLIC "-//W3C//DTD SVG 1.1//EN"
 "http://www.w3.org/Graphics/SVG/1.1/DTD/svg11.dtd">
<!-- Generated by graphviz version 2.44.1 (20200629.0846)
 -->
<!-- Title: dependency&#45;cruiser output Pages: 1 -->
<svg width="236pt" height="76pt"
 viewBox="0.00 0.00 236.00 76.00" xmlns="http://www.w3.org/2000/svg" xmlns:xlink="http://www.w3.org/1999/xlink">
<g id="graph0" class="graph" transform="scale(1 1) rotate(0) translate(4 72)">
<title>dependency&#45;cruiser output</title>
<polygon fill="white" stroke="transparent" points="-4,4 -4,-72 232,-72 232,4 -4,4"/>
<g id="clust1" class="cluster">
<title>cluster_src</title>
<path fill="#ffffff" stroke="black" stroke-width="2" d="M20,-8C20,-8 208,-8 208,-8 214,-8 220,-14 220,-20 220,-20 220,-48 220,-48 220,-54 214,-60 208,-60 208,-60 20,-60 20,-60 14,-60 8,-54 8,-48 8,-48 8,-20 8,-20 8,-14 14,-8 20,-8"/>
<text text-anchor="middle" x="114" y="-48.8" font-family="Helvetica,sans-Serif" font-weight="bold" font-size="9.00">src</text>
</g>
<!-- src/SomeWhere.component.tsx -->
<g id="node1" class="node">
<title>src/SomeWhere.component.tsx</title>
<g id="a_node1"><a xlink:href="src/SomeWhere.component.tsx" xlink:title="SomeWhere.component.tsx">
<path fill="#bbfeff" stroke="black" d="M206,-34C206,-34 89,-34 89,-34 86,-34 83,-31 83,-28 83,-28 83,-22 83,-22 83,-19 86,-16 89,-16 89,-16 206,-16 206,-16 209,-16 212,-19 212,-22 212,-22 212,-28 212,-28 212,-31 209,-34 206,-34"/>
<text text-anchor="middle" x="147.5" y="-22.8" font-family="Helvetica,sans-Serif" font-size="9.00">SomeWhere.component.tsx</text>
</a>
</g>
</g>
<!-- src/index.ts -->
<g id="node2" class="node">
<title>src/index.ts</title>
<g id="a_node2"><a xlink:href="src/index.ts" xlink:title="index.ts">
<path fill="#ddfeff" stroke="black" d="M64,-34C64,-34 22,-34 22,-34 19,-34 16,-31 16,-28 16,-28 16,-22 16,-22 16,-19 19,-16 22,-16 22,-16 64,-16 64,-16 67,-16 70,-19 70,-22 70,-22 70,-28 70,-28 70,-31 67,-34 64,-34"/>
<text text-anchor="middle" x="43" y="-22.8" font-family="Helvetica,sans-Serif" font-size="9.00">index.ts</text>
</a>
</g>
</g>
<!-- src/index.ts&#45;&gt;src/SomeWhere.component.tsx -->
<g id="edge1" class="edge">
<title>src/index.ts&#45;&gt;src/SomeWhere.component.tsx</title>
<path fill="none" stroke="#000000" stroke-width="2" stroke-opacity="0.200000" d="M70.13,-25C72.27,-25 74.49,-25 76.77,-25"/>
<polygon fill="#000000" fill-opacity="0.200000" stroke="#000000" stroke-width="2" stroke-opacity="0.200000" points="76.91,-27.1 82.91,-25 76.91,-22.9 76.91,-27.1"/>
</g>
</g>
</svg>
