<?xml version="1.0" encoding="UTF-8" standalone="no"?>
<!DOCTYPE svg PUBLIC "-//W3C//DTD SVG 1.1//EN"
 "http://www.w3.org/Graphics/SVG/1.1/DTD/svg11.dtd">
<!-- Generated by graphviz version 2.48.0 (20210717.1556)
 -->
<!-- Title: dependency&#45;cruiser output Pages: 1 -->
<svg width="347pt" height="148pt"
 viewBox="0.00 0.00 347.18 148.00" xmlns="http://www.w3.org/2000/svg" xmlns:xlink="http://www.w3.org/1999/xlink">
<g id="graph0" class="graph" transform="scale(1 1) rotate(0) translate(4 144)">
<title>dependency&#45;cruiser output</title>
<polygon fill="white" stroke="transparent" points="-4,4 -4,-144 343.18,-144 343.18,4 -4,4"/>
<!-- src/ahoi.ts -->
<g id="node1" class="node">
<title>src/ahoi.ts</title>
<g id="a_node1"><a xlink:href="src/ahoi.ts" xlink:title="src/&lt;BR/&gt;&lt;B&gt;ahoi.ts&lt;/B&gt;">
<path fill="#ddfeff" stroke="black" d="M110.51,-83C110.51,-83 73.85,-83 73.85,-83 69.51,-83 65.18,-78.67 65.18,-74.33 65.18,-74.33 65.18,-65.67 65.18,-65.67 65.18,-61.33 69.51,-57 73.85,-57 73.85,-57 110.51,-57 110.51,-57 114.85,-57 119.18,-61.33 119.18,-65.67 119.18,-65.67 119.18,-74.33 119.18,-74.33 119.18,-78.67 114.85,-83 110.51,-83"/>
<text text-anchor="start" x="84.68" y="-72.8" font-family="Helvetica,sans-Serif" font-size="9.00">src/</text>
<text text-anchor="start" x="77.18" y="-63.8" font-family="Helvetica,sans-Serif" font-weight="bold" font-size="9.00">ahoi.ts</text>
</a>
</g>
</g>
<!-- src/code&#45;things.ts -->
<g id="node2" class="node">
<title>src/code&#45;things.ts</title>
<g id="a_node2"><a xlink:href="src/code-things.ts" xlink:title="src/&lt;BR/&gt;&lt;B&gt;code&#45;things.ts&lt;/B&gt;">
<path fill="#ddfeff" stroke="black" d="M266.01,-140C266.01,-140 205.35,-140 205.35,-140 201.01,-140 196.68,-135.67 196.68,-131.33 196.68,-131.33 196.68,-122.67 196.68,-122.67 196.68,-118.33 201.01,-114 205.35,-114 205.35,-114 266.01,-114 266.01,-114 270.35,-114 274.68,-118.33 274.68,-122.67 274.68,-122.67 274.68,-131.33 274.68,-131.33 274.68,-135.67 270.35,-140 266.01,-140"/>
<text text-anchor="start" x="228.18" y="-129.8" font-family="Helvetica,sans-Serif" font-size="9.00">src/</text>
<text text-anchor="start" x="204.68" y="-120.8" font-family="Helvetica,sans-Serif" font-weight="bold" font-size="9.00">code&#45;things.ts</text>
</a>
</g>
</g>
<!-- src/ahoi.ts&#45;&gt;src/code&#45;things.ts -->
<g id="edge1" class="edge">
<title>src/ahoi.ts&#45;&gt;src/code&#45;things.ts</title>
<g id="a_edge1"><a xlink:title="dont&#45;depend&#45;on&#45;code">
<path fill="none" stroke="red" stroke-width="2" d="M92.18,-83.22C92.18,-100.06 92.18,-127 92.18,-127 92.18,-127 190.47,-127 190.47,-127"/>
<polygon fill="red" stroke="red" stroke-width="2" points="190.47,-129.1 196.47,-127 190.47,-124.9 190.47,-129.1"/>
</a>
</g>
<text text-anchor="middle" x="75.93" y="-119.8" font-family="Helvetica,sans-Serif" font-size="9.00" fill="red">dont&#45;depend&#45;on&#45;code</text>
</g>
<!-- src/doesnot&#45;end&#45;in&#45;things&#45;so&#45;ignored&#45;in&#45;rules.ts -->
<g id="node3" class="node">
<title>src/doesnot&#45;end&#45;in&#45;things&#45;so&#45;ignored&#45;in&#45;rules.ts</title>
<g id="a_node3"><a xlink:href="src/doesnot-end-in-things-so-ignored-in-rules.ts" xlink:title="src/&lt;BR/&gt;&lt;B&gt;doesnot&#45;end&#45;in&#45;things&#45;so&#45;ignored&#45;in&#45;rules.ts&lt;/B&gt;">
<path fill="#ddfeff" stroke="black" d="M330.51,-102C330.51,-102 140.85,-102 140.85,-102 136.51,-102 132.18,-97.67 132.18,-93.33 132.18,-93.33 132.18,-84.67 132.18,-84.67 132.18,-80.33 136.51,-76 140.85,-76 140.85,-76 330.51,-76 330.51,-76 334.85,-76 339.18,-80.33 339.18,-84.67 339.18,-84.67 339.18,-93.33 339.18,-93.33 339.18,-97.67 334.85,-102 330.51,-102"/>
<text text-anchor="start" x="228.18" y="-91.8" font-family="Helvetica,sans-Serif" font-size="9.00">src/</text>
<text text-anchor="start" x="140.18" y="-82.8" font-family="Helvetica,sans-Serif" font-weight="bold" font-size="9.00">doesnot&#45;end&#45;in&#45;things&#45;so&#45;ignored&#45;in&#45;rules.ts</text>
</a>
</g>
</g>
<!-- src/ahoi.ts&#45;&gt;src/doesnot&#45;end&#45;in&#45;things&#45;so&#45;ignored&#45;in&#45;rules.ts -->
<g id="edge2" class="edge">
<title>src/ahoi.ts&#45;&gt;src/doesnot&#45;end&#45;in&#45;things&#45;so&#45;ignored&#45;in&#45;rules.ts</title>
<path fill="none" stroke="#000000" stroke-opacity="0.200000" d="M119.51,-79.5C119.51,-79.5 126,-79.5 126,-79.5"/>
<polygon fill="none" stroke="#000000" stroke-opacity="0.200000" points="126,-81.6 132,-79.5 126,-77.4 126,-81.6"/>
</g>
<!-- src/included&#45;but&#45;unused&#45;things.ts -->
<g id="node4" class="node">
<title>src/included&#45;but&#45;unused&#45;things.ts</title>
<g id="a_node4"><a xlink:href="src/included-but-unused-things.ts" xlink:title="src/&lt;BR/&gt;&lt;B&gt;included&#45;but&#45;unused&#45;things.ts&lt;/B&gt;">
<path fill="#ddfeff" stroke="black" d="M300.01,-64C300.01,-64 171.35,-64 171.35,-64 167.01,-64 162.68,-59.67 162.68,-55.33 162.68,-55.33 162.68,-46.67 162.68,-46.67 162.68,-42.33 167.01,-38 171.35,-38 171.35,-38 300.01,-38 300.01,-38 304.35,-38 308.68,-42.33 308.68,-46.67 308.68,-46.67 308.68,-55.33 308.68,-55.33 308.68,-59.67 304.35,-64 300.01,-64"/>
<text text-anchor="start" x="228.18" y="-53.8" font-family="Helvetica,sans-Serif" font-size="9.00">src/</text>
<text text-anchor="start" x="170.68" y="-44.8" font-family="Helvetica,sans-Serif" font-weight="bold" font-size="9.00">included&#45;but&#45;unused&#45;things.ts</text>
</a>
</g>
</g>
<!-- src/ahoi.ts&#45;&gt;src/included&#45;but&#45;unused&#45;things.ts -->
<g id="edge3" class="edge">
<title>src/ahoi.ts&#45;&gt;src/included&#45;but&#45;unused&#45;things.ts</title>
<g id="a_edge3"><a xlink:title="dont&#45;depend&#45;on&#45;pre&#45;com&#45;only">
<path fill="none" stroke="orange" d="M119.51,-60.5C119.51,-60.5 156.48,-60.5 156.48,-60.5"/>
<polygon fill="none" stroke="orange" points="156.48,-62.6 162.48,-60.5 156.48,-58.4 156.48,-62.6"/>
</a>
</g>
<text text-anchor="middle" x="77.99" y="-53.3" font-family="Helvetica,sans-Serif" font-size="9.00" fill="orange">dont&#45;depend&#45;on&#45;pre&#45;com&#45;only</text>
</g>
<!-- src/type&#45;things.ts -->
<g id="node5" class="node">
<title>src/type&#45;things.ts</title>
<g id="a_node5"><a xlink:href="src/type-things.ts" xlink:title="src/&lt;BR/&gt;&lt;B&gt;type&#45;things.ts&lt;/B&gt;">
<path fill="#ddfeff" stroke="black" d="M265.01,-26C265.01,-26 206.35,-26 206.35,-26 202.01,-26 197.68,-21.67 197.68,-17.33 197.68,-17.33 197.68,-8.67 197.68,-8.67 197.68,-4.33 202.01,0 206.35,0 206.35,0 265.01,0 265.01,0 269.35,0 273.68,-4.33 273.68,-8.67 273.68,-8.67 273.68,-17.33 273.68,-17.33 273.68,-21.67 269.35,-26 265.01,-26"/>
<text text-anchor="start" x="228.18" y="-15.8" font-family="Helvetica,sans-Serif" font-size="9.00">src/</text>
<text text-anchor="start" x="205.68" y="-6.8" font-family="Helvetica,sans-Serif" font-weight="bold" font-size="9.00">type&#45;things.ts</text>
</a>
</g>
</g>
<!-- src/ahoi.ts&#45;&gt;src/type&#45;things.ts -->
<g id="edge4" class="edge">
<title>src/ahoi.ts&#45;&gt;src/type&#45;things.ts</title>
<g id="a_edge4"><a xlink:title="dont&#45;depend&#45;on&#45;pre&#45;com&#45;only">
<path fill="none" stroke="orange" d="M92.18,-56.78C92.18,-39.94 92.18,-13 92.18,-13 92.18,-13 191.6,-13 191.6,-13"/>
<polygon fill="none" stroke="orange" points="191.6,-15.1 197.6,-13 191.6,-10.9 191.6,-15.1"/>
</a>
</g>
<text text-anchor="middle" x="60" y="-5.8" font-family="Helvetica,sans-Serif" font-size="9.00" fill="orange">dont&#45;depend&#45;on&#45;pre&#45;com&#45;only</text>
</g>
</g>
</svg>
