<?xml version="1.0" encoding="UTF-8" standalone="no"?>
<!DOCTYPE svg PUBLIC "-//W3C//DTD SVG 1.1//EN"
 "http://www.w3.org/Graphics/SVG/1.1/DTD/svg11.dtd">
<!-- Generated by graphviz version 3.0.0 (20220226.1711)
 -->
<!-- Title: dependency&#45;cruiser output Pages: 1 -->
<svg width="188pt" height="110pt"
 viewBox="0.00 0.00 188.00 110.00" xmlns="http://www.w3.org/2000/svg" xmlns:xlink="http://www.w3.org/1999/xlink">
<g id="graph0" class="graph" transform="scale(1 1) rotate(0) translate(4 106)">
<title>dependency&#45;cruiser output</title>
<polygon fill="white" stroke="transparent" points="-4,4 -4,-106 184,-106 184,4 -4,4"/>
<g id="clust1" class="cluster">
<title>cluster_src</title>
<path fill="#ffffff" stroke="black" stroke-width="2" d="M20,-8C20,-8 160,-8 160,-8 166,-8 172,-14 172,-20 172,-20 172,-82 172,-82 172,-88 166,-94 160,-94 160,-94 20,-94 20,-94 14,-94 8,-88 8,-82 8,-82 8,-20 8,-20 8,-14 14,-8 20,-8"/>
<text text-anchor="middle" x="90" y="-82.8" font-family="Helvetica,sans-Serif" font-weight="bold" font-size="9.00">src</text>
</g>
<g id="clust2" class="cluster">
<title>cluster_src/folderA</title>
<path fill="#ffffff" stroke="black" stroke-width="2" d="M28,-16C28,-16 74,-16 74,-16 80,-16 86,-22 86,-28 86,-28 86,-56 86,-56 86,-62 80,-68 74,-68 74,-68 28,-68 28,-68 22,-68 16,-62 16,-56 16,-56 16,-28 16,-28 16,-22 22,-16 28,-16"/>
<text text-anchor="middle" x="51" y="-56.8" font-family="Helvetica,sans-Serif" font-weight="bold" font-size="9.00">folderA</text>
</g>
<g id="clust3" class="cluster">
<title>cluster_src/folderB</title>
<path fill="#ffffff" stroke="black" stroke-width="2" d="M106,-16C106,-16 152,-16 152,-16 158,-16 164,-22 164,-28 164,-28 164,-56 164,-56 164,-62 158,-68 152,-68 152,-68 106,-68 106,-68 100,-68 94,-62 94,-56 94,-56 94,-28 94,-28 94,-22 100,-16 106,-16"/>
<text text-anchor="middle" x="129" y="-56.8" font-family="Helvetica,sans-Serif" font-weight="bold" font-size="9.00">folderB</text>
</g>
<!-- src/folderA/a.ts -->
<g id="node1" class="node">
<title>src/folderA/a.ts</title>
<g id="a_node1"><a xlink:href="src/folderA/a.ts" xlink:title="a.ts">
<path fill="#ddfeff" stroke="black" d="M72,-42C72,-42 30,-42 30,-42 27,-42 24,-39 24,-36 24,-36 24,-30 24,-30 24,-27 27,-24 30,-24 30,-24 72,-24 72,-24 75,-24 78,-27 78,-30 78,-30 78,-36 78,-36 78,-39 75,-42 72,-42"/>
<text text-anchor="start" x="43.5" y="-30.8" font-family="Helvetica,sans-Serif" font-size="9.00">a.ts</text>
</a>
</g>
</g>
<!-- src/folderB/b.ts -->
<g id="node2" class="node">
<title>src/folderB/b.ts</title>
<g id="a_node2"><a xlink:href="src/folderB/b.ts" xlink:title="b.ts">
<path fill="#ddfeff" stroke="black" d="M150,-42C150,-42 108,-42 108,-42 105,-42 102,-39 102,-36 102,-36 102,-30 102,-30 102,-27 105,-24 108,-24 108,-24 150,-24 150,-24 153,-24 156,-27 156,-30 156,-30 156,-36 156,-36 156,-39 153,-42 150,-42"/>
<text text-anchor="start" x="121.5" y="-30.8" font-family="Helvetica,sans-Serif" font-size="9.00">b.ts</text>
</a>
</g>
</g>
<!-- src/folderA/a.ts&#45;&gt;src/folderB/b.ts -->
<g id="edge1" class="edge">
<title>src/folderA/a.ts&#45;&gt;src/folderB/b.ts</title>
<path fill="none" stroke="#000000" stroke-width="2" stroke-opacity="0.200000" d="M78.15,-33C83.77,-33 89.76,-33 95.58,-33"/>
<polygon fill="#000000" fill-opacity="0.200000" stroke="#000000" stroke-width="2" stroke-opacity="0.200000" points="95.8,-35.1 101.8,-33 95.8,-30.9 95.8,-35.1"/>
</g>
</g>
</svg>
